<svg width="786" height="321" viewBox="0 0 786 321" fill="none" xmlns="http://www.w3.org/2000/svg">
<rect x="8" y="8" width="770" height="305" fill="black" stroke="#00FF00" stroke-width="14.7502"/>
<path d="M214.718 100.315V106.157H208.875V112H203.032V82.7871H208.875V100.315H214.718ZM232.245 82.7871V112H226.403V94.4723H220.56V88.6297H226.403V82.7871H232.245ZM220.56 94.4723V100.315H214.718V94.4723H220.56ZM261.473 88.6297H243.946V82.7871H261.473V88.6297ZM243.946 88.6297V106.157H238.103V88.6297H243.946ZM267.316 88.6297V94.4723H261.473V88.6297H267.316ZM261.473 106.157V100.315H267.316V106.157H261.473ZM243.946 106.157H261.473V112H243.946V106.157ZM296.544 88.6297H279.016V82.7871H296.544V88.6297ZM279.016 88.6297V112H273.174V88.6297H279.016ZM302.387 88.6297V112H296.544V88.6297H302.387ZM314.087 88.6297V82.7871H331.615V88.6297H314.087ZM314.087 106.157H308.245V88.6297H314.087V106.157ZM337.457 88.6297V106.157H331.615V88.6297H337.457ZM331.615 106.157V112H314.087V106.157H331.615ZM370.588 88.6297H353.06V82.7871H370.588V88.6297ZM353.06 88.6297V106.157H347.218V88.6297H353.06ZM376.431 88.6297V112H370.588V88.6297H376.431ZM347.218 106.157V112H341.375V106.157H347.218ZM411.479 94.4723V106.157H405.636V100.315H388.108V106.157H382.266V82.7871H388.108V94.4723H411.479ZM405.636 106.157V112H388.108V106.157H405.636ZM440.707 88.6297H423.179V82.7871H440.707V88.6297ZM423.179 88.6297V94.4723H417.336V88.6297H423.179ZM446.549 88.6297V94.4723H440.707V88.6297H446.549ZM440.707 94.4723V100.315H429.022V94.4723H440.707ZM423.179 106.157H417.336V100.315H423.179V106.157ZM440.707 100.315H446.549V106.157H440.707V100.315ZM440.707 106.157V112H423.179V106.157H440.707ZM458.25 94.4723H452.407V82.7871H458.25V94.4723ZM481.62 82.7871V106.157H475.778V100.315H458.25V94.4723H475.778V82.7871H481.62ZM475.778 106.157V112H452.407V106.157H475.778ZM493.32 76.9445V65.2593H499.163V71.1019H505.006V65.2593H510.848V76.9445H493.32ZM499.163 100.315V106.157H493.32V112H487.478V82.7871H493.32V100.315H499.163ZM516.691 82.7871V112H510.848V94.4723H505.006V88.6297H510.848V82.7871H516.691ZM505.006 94.4723V100.315H499.163V94.4723H505.006ZM549.822 82.7871V88.6297H538.136V112H532.294V88.6297H520.609V82.7871H549.822ZM582.952 82.7871V88.6297H559.582V82.7871H582.952ZM559.582 88.6297V94.4723H577.11V100.315H559.582V106.157H553.739V88.6297H559.582ZM559.582 106.157H582.952V112H559.582V106.157ZM173.854 139.472V145.315H156.326V157H150.483V127.787H156.326V139.472H173.854ZM179.696 127.787V139.472H173.854V127.787H179.696ZM173.854 145.315H179.696V157H173.854V145.315ZM214.767 127.787V157H208.924V145.315H191.397V157H185.554V127.787H191.397V139.472H208.924V127.787H214.767ZM226.467 133.63V127.787H243.995V133.63H226.467ZM226.467 151.157H220.625V133.63H226.467V151.157ZM249.838 133.63V151.157H243.995V133.63H249.838ZM243.995 151.157V157H226.467V151.157H243.995ZM279.066 133.63H261.538V127.787H279.066V133.63ZM261.538 133.63V157H255.696V133.63H261.538ZM284.908 133.63V157H279.066V133.63H284.908ZM314.137 139.472V145.315H296.609V157H290.766V127.787H296.609V139.472H314.137ZM319.979 127.787V139.472H314.137V127.787H319.979ZM314.137 145.315H319.979V157H314.137V145.315ZM337.522 145.315V151.157H331.68V157H325.837V127.787H331.68V145.315H337.522ZM355.05 127.787V157H349.207V139.472H343.365V133.63H349.207V127.787H355.05ZM343.365 139.472V145.315H337.522V139.472H343.365ZM390.105 133.63V127.787H407.633V133.63H390.105ZM413.476 133.63V157H407.633V151.157H390.105V157H384.263V133.63H390.105V145.315H407.633V133.63H413.476ZM423.229 151.157V162.843H417.386V151.157H423.229ZM456.329 151.157H450.486V127.787H456.329V151.157ZM468.014 151.157H462.171V127.787H468.014V151.157ZM479.699 127.787V151.157H473.857V127.787H479.699ZM462.171 151.157V157H456.329V151.157H462.171ZM473.857 151.157V157H468.014V151.157H473.857ZM489.452 151.157V162.843H483.609V151.157H489.452ZM545.923 127.787V133.63H522.552V127.787H545.923ZM522.552 133.63V139.472H545.923V151.157H540.08V145.315H516.71V133.63H522.552ZM540.08 151.157V157H516.71V151.157H540.08ZM555.676 151.157V162.843H549.833V151.157H555.676ZM606.304 151.157V157H582.933V127.787H606.304V133.63H588.776V151.157H606.304ZM612.146 133.63V151.157H606.304V133.63H612.146ZM223.516 196.157V207.843H217.673V202H188.46V207.843H182.618V196.157H188.46V178.63H194.303V196.157H211.831V178.63H194.303V172.787H217.673V196.157H223.516ZM256.608 178.63H239.081V172.787H256.608V178.63ZM239.081 178.63V196.157H233.238V178.63H239.081ZM262.451 178.63V202H256.608V178.63H262.451ZM233.238 196.157V202H227.396V196.157H233.238ZM297.499 172.787V202H291.656V190.315H279.971V196.157H274.129V190.315H268.286V178.63H274.129V184.472H291.656V178.63H274.129V172.787H297.499ZM274.129 196.157V202H268.286V196.157H274.129ZM350.082 184.472V190.315H332.554V202H326.712V172.787H332.554V184.472H350.082ZM355.925 172.787V184.472H350.082V172.787H355.925ZM350.082 190.315H355.925V202H350.082V190.315ZM367.625 178.63V172.787H385.153V178.63H367.625ZM367.625 196.157H361.783V178.63H367.625V196.157ZM390.995 178.63V196.157H385.153V178.63H390.995ZM385.153 196.157V202H367.625V196.157H385.153ZM426.066 172.787V202H420.224V190.315H402.696V202H396.853V172.787H402.696V184.472H420.224V172.787H426.066ZM459.197 172.787V178.63H447.512V202H441.669V178.63H429.984V172.787H459.197ZM492.328 178.63V190.315H468.957V202H463.115V172.787H486.485V178.63H468.957V184.472H486.485V178.63H492.328ZM504.028 178.63V172.787H521.556V178.63H504.028ZM504.028 196.157H498.185V178.63H504.028V196.157ZM527.398 178.63V196.157H521.556V178.63H527.398ZM521.556 196.157V202H504.028V196.157H521.556ZM560.529 178.63H543.001V172.787H560.529V178.63ZM543.001 178.63V196.157H537.159V178.63H543.001ZM566.372 178.63V202H560.529V178.63H566.372ZM537.159 196.157V202H531.316V196.157H537.159ZM601.42 172.787V202H595.577V190.315H583.892V196.157H578.049V190.315H572.207V178.63H578.049V184.472H595.577V178.63H578.049V172.787H601.42ZM578.049 196.157V202H572.207V196.157H578.049ZM279.009 223.63H261.481V217.787H279.009V223.63ZM261.481 223.63V247H255.638V223.63H261.481ZM284.851 223.63V247H279.009V223.63H284.851ZM296.552 223.63V217.787H314.08V223.63H296.552ZM319.922 223.63V247H314.08V241.157H296.552V247H290.709V223.63H296.552V235.315H314.08V223.63H319.922ZM349.15 229.472V235.315H331.622V247H325.78V217.787H331.622V229.472H349.15ZM354.993 217.787V229.472H349.15V217.787H354.993ZM349.15 235.315H354.993V247H349.15V235.315ZM372.536 229.472H366.693V247H360.851V217.787H366.693V223.63H372.536V229.472ZM390.063 217.787V247H384.221V229.472H378.378V223.63H384.221V217.787H390.063ZM378.378 229.472V235.315H372.536V229.472H378.378ZM401.764 223.63V217.787H419.292V223.63H401.764ZM425.134 223.63V247H419.292V241.157H401.764V247H395.921V223.63H401.764V235.315H419.292V223.63H425.134ZM460.205 217.787V247H454.362V235.315H436.835V247H430.992V217.787H436.835V229.472H454.362V217.787H460.205ZM471.905 223.63V217.787H489.433V223.63H471.905ZM471.905 241.157H466.063V223.63H471.905V241.157ZM495.276 223.63V241.157H489.433V223.63H495.276ZM489.433 241.157V247H471.905V241.157H489.433ZM512.819 229.472H506.976V247H501.133V217.787H506.976V223.63H512.819V229.472ZM530.346 217.787V247H524.504V229.472H518.661V223.63H524.504V217.787H530.346ZM518.661 229.472V235.315H512.819V229.472H518.661Z" fill="#00FF00"/>
<path d="M715.6 39.6H706V30H715.6V39.6ZM754 30V39.6H744.4V30H754ZM725.2 49.2H715.6V39.6H725.2V49.2ZM744.4 39.6V49.2H734.8V39.6H744.4ZM734.8 49.2V58.8H725.2V49.2H734.8ZM725.2 58.8V68.4H715.6V58.8H725.2ZM734.8 58.8H744.4V68.4H734.8V58.8ZM715.6 68.4V78H706V68.4H715.6ZM744.4 68.4H754V78H744.4V68.4Z" fill="#00FF00"/>
</svg>
