<svg width="786" height="321" viewBox="0 0 786 321" fill="none" xmlns="http://www.w3.org/2000/svg">
<rect x="8" y="8" width="770" height="305" fill="black" stroke="#00FF00" stroke-width="14.7502"/>
<path d="M128.988 111.63H111.461V105.787H128.988V111.63ZM111.461 111.63V135H105.618V111.63H111.461ZM134.831 111.63V135H128.988V111.63H134.831ZM169.902 105.787V111.63H146.531V105.787H169.902ZM146.531 111.63V117.472H164.059V123.315H146.531V129.157H140.689V111.63H146.531ZM146.531 129.157H169.902V135H146.531V129.157ZM204.972 111.63V123.315H181.602V135H175.759V105.787H199.13V111.63H181.602V117.472H199.13V111.63H204.972ZM240.043 105.787V111.63H216.673V105.787H240.043ZM216.673 111.63V117.472H234.2V123.315H216.673V129.157H210.83V111.63H216.673ZM216.673 129.157H240.043V135H216.673V129.157ZM275.114 105.787V117.472H269.271V111.63H251.743V117.472H269.271V123.315H251.743V129.157H269.271V123.315H275.114V135H245.901V105.787H275.114ZM310.184 105.787V111.63H286.814V105.787H310.184ZM286.814 111.63V117.472H304.342V123.315H286.814V129.157H280.972V111.63H286.814ZM286.814 129.157H310.184V135H286.814V129.157ZM345.255 111.63V123.315H321.885V135H316.042V105.787H339.413V111.63H321.885V117.472H339.413V111.63H345.255ZM380.326 105.787V135H374.483V123.315H356.956V135H351.113V105.787H356.956V117.472H374.483V105.787H380.326ZM397.869 123.315V129.157H392.026V135H386.184V105.787H392.026V123.315H397.869ZM415.397 105.787V135H409.554V117.472H403.711V111.63H409.554V105.787H415.397ZM403.711 117.472V123.315H397.869V117.472H403.711ZM448.527 105.787V111.63H436.842V135H431V111.63H419.314V105.787H448.527ZM481.658 105.787V111.63H458.288V105.787H481.658ZM458.288 111.63V117.472H475.816V123.315H458.288V129.157H452.445V111.63H458.288ZM458.288 129.157H481.658V135H458.288V129.157ZM534.241 111.63H516.714V105.787H534.241V111.63ZM516.714 111.63V117.472H510.871V111.63H516.714ZM540.084 111.63V129.157H534.241V123.315H522.556V117.472H534.241V111.63H540.084ZM516.714 129.157H510.871V123.315H516.714V129.157ZM534.241 129.157V135H516.714V129.157H534.241ZM569.312 117.472V123.315H551.784V135H545.942V105.787H551.784V117.472H569.312ZM575.155 105.787V117.472H569.312V105.787H575.155ZM569.312 123.315H575.155V135H569.312V123.315ZM610.225 111.63V123.315H586.855V135H581.012V105.787H604.383V111.63H586.855V117.472H604.383V111.63H610.225ZM621.926 111.63V105.787H639.453V111.63H621.926ZM645.296 111.63V135H639.453V129.157H621.926V135H616.083V111.63H621.926V123.315H639.453V111.63H645.296ZM680.367 105.787V135H674.524V123.315H656.996V135H651.154V105.787H656.996V117.472H674.524V105.787H680.367ZM151.396 150.787V162.472H145.554V156.63H128.026V162.472H145.554V168.315H128.026V174.157H145.554V168.315H151.396V180H122.183V150.787H151.396ZM209.822 150.787V156.63H186.452V150.787H209.822ZM186.452 156.63V180H180.609V156.63H186.452ZM219.583 156.63V150.787H237.11V156.63H219.583ZM219.583 174.157H213.74V156.63H219.583V174.157ZM242.953 156.63V174.157H237.11V156.63H242.953ZM237.11 174.157V180H219.583V174.157H237.11ZM278.024 156.63V168.315H254.653V180H248.811V150.787H272.181V156.63H254.653V162.472H272.181V156.63H278.024ZM295.567 168.315V174.157H289.724V180H283.881V150.787H289.724V168.315H295.567ZM313.094 150.787V180H307.252V162.472H301.409V156.63H307.252V150.787H313.094ZM301.409 162.472V168.315H295.567V162.472H301.409ZM342.322 156.63H324.795V150.787H342.322V156.63ZM324.795 156.63V162.472H318.952V156.63H324.795ZM348.165 156.63V162.472H342.322V156.63H348.165ZM342.322 162.472V168.315H330.637V162.472H342.322ZM324.795 174.157H318.952V168.315H324.795V174.157ZM342.322 168.315H348.165V174.157H342.322V168.315ZM342.322 174.157V180H324.795V174.157H342.322ZM359.865 156.63V150.787H377.393V156.63H359.865ZM359.865 174.157H354.023V156.63H359.865V174.157ZM383.236 156.63V174.157H377.393V156.63H383.236ZM377.393 174.157V180H359.865V174.157H377.393ZM418.306 150.787V180H412.464V168.315H394.936V180H389.094V150.787H394.936V162.472H412.464V150.787H418.306ZM451.437 150.787V156.63H439.752V180H433.909V156.63H422.224V150.787H451.437ZM461.198 156.63V150.787H478.725V156.63H461.198ZM484.568 156.63V180H478.725V174.157H461.198V180H455.355V156.63H461.198V168.315H478.725V156.63H484.568ZM517.699 156.63H500.171V150.787H517.699V156.63ZM500.171 156.63V174.157H494.328V156.63H500.171ZM523.541 156.63V180H517.699V156.63H523.541ZM494.328 174.157V180H488.486V174.157H494.328ZM558.589 162.472V174.157H552.747V168.315H535.219V174.157H529.376V150.787H535.219V162.472H558.589ZM552.747 174.157V180H535.219V174.157H552.747ZM593.66 150.787V180H587.817V168.315H570.29V180H564.447V150.787H570.29V162.472H587.817V150.787H593.66ZM605.36 156.63V150.787H622.888V156.63H605.36ZM605.36 174.157H599.518V156.63H605.36V174.157ZM628.731 156.63V174.157H622.888V156.63H628.731ZM622.888 174.157V180H605.36V174.157H622.888ZM663.801 150.787V156.63H640.431V150.787H663.801ZM640.431 156.63V162.472H657.959V168.315H640.431V174.157H634.588V156.63H640.431ZM640.431 174.157H663.801V180H640.431V174.157ZM247.856 201.63H230.328V195.787H247.856V201.63ZM230.328 201.63V225H224.486V201.63H230.328ZM253.699 201.63V225H247.856V201.63H253.699ZM265.399 201.63V195.787H282.927V201.63H265.399ZM265.399 219.157H259.556V201.63H265.399V219.157ZM288.769 201.63V219.157H282.927V201.63H288.769ZM282.927 219.157V225H265.399V219.157H282.927ZM321.9 201.63H304.372V195.787H321.9V201.63ZM304.372 201.63V219.157H298.53V201.63H304.372ZM327.743 201.63V225H321.9V201.63H327.743ZM298.53 219.157V225H292.687V219.157H298.53ZM339.42 201.63V195.787H356.948V201.63H339.42ZM339.42 219.157H333.578V201.63H339.42V219.157ZM362.791 201.63V219.157H356.948V201.63H362.791ZM356.948 219.157V225H339.42V219.157H356.948ZM374.491 207.472H368.648V195.787H374.491V207.472ZM415.389 207.472V213.315H397.861V225H392.019V213.315H374.491V207.472H392.019V195.787H397.861V207.472H415.389ZM421.232 195.787V207.472H415.389V195.787H421.232ZM374.491 213.315V225H368.648V213.315H374.491ZM415.389 213.315H421.232V225H415.389V213.315ZM456.287 195.787V201.63H432.917V195.787H456.287ZM432.917 201.63V207.472H450.444V213.315H432.917V219.157H427.074V201.63H432.917ZM432.917 219.157H456.287V225H432.917V219.157ZM491.358 195.787V225H485.515V213.315H467.987V225H462.145V195.787H467.987V207.472H485.515V195.787H491.358ZM508.901 213.315V219.157H503.058V225H497.216V195.787H503.058V213.315H508.901ZM526.428 195.787V225H520.586V207.472H514.743V201.63H520.586V195.787H526.428ZM514.743 207.472V213.315H508.901V207.472H514.743ZM561.499 195.787V201.63H538.129V195.787H561.499ZM538.129 201.63V207.472H555.657V213.315H538.129V219.157H532.286V201.63H538.129ZM538.129 219.157H561.499V225H538.129V219.157Z" fill="#00FF00"/>
</svg>
