<svg width="26" height="24" viewBox="0 0 26 24" fill="none" xmlns="http://www.w3.org/2000/svg">
<path d="M18.9049 8.98219H17.23V7.30725H18.9049V8.98219ZM25.6046 7.30725V8.98219H23.9296V7.30725H25.6046ZM20.5798 10.6571H18.9049V8.98219H20.5798V10.6571ZM23.9296 8.98219V10.6571H22.2547V8.98219H23.9296ZM22.2547 10.6571V12.332H20.5798V10.6571H22.2547ZM20.5798 12.332V14.0069H18.9049V12.332H20.5798ZM22.2547 12.332H23.9296V14.0069H22.2547V12.332ZM18.9049 14.0069V15.6818H17.23V14.0069H18.9049ZM23.9296 14.0069H25.6046V15.6818H23.9296V14.0069Z" fill="white"/>
<path d="M6.15348 15.9606H0.192296V7.11496H6.15348H6.34578V6.92267V5.96118H7.30726H7.49955V5.76889V4.80741H8.46103H8.65333V4.61511V3.65363H9.61481H9.80711V3.46133V2.49985H10.7686H10.9609V2.30755V1.34607H11.9224H12.1147V1.15378V0.192296H13.0761H14.0376V22.9305H12.6916H11.7301V21.9218V21.7295H11.5378H10.5763V20.768V20.5757H10.384H9.42251V19.6142V19.4219H9.23022H8.26874V18.4604V18.2681H8.07644H7.49955V17.3067V17.1144H7.30726H6.34578V16.1529V15.9606H6.15348Z" fill="white" stroke="white" stroke-width="0.384592"/>
</svg>
