<svg width="25" height="24" viewBox="0 0 25 24" fill="none" xmlns="http://www.w3.org/2000/svg">
<rect x="18" y="6.87495" width="0.968737" height="8.71864" fill="white"/>
<rect x="20.7485" y="4.84061" width="0.968737" height="12.7873" fill="white"/>
<rect x="23.4976" y="3" width="0.968737" height="16.4685" fill="white"/>
<path d="M6.15348 15.9606H0.192296V7.11496H6.15348H6.34578V6.92267V5.96118H7.30726H7.49955V5.76889V4.80741H8.46103H8.65333V4.61511V3.65363H9.61481H9.80711V3.46133V2.49985H10.7686H10.9609V2.30755V1.34607H11.9224H12.1147V1.15378V0.192296H13.0761H14.0376V22.9305H12.6916H11.7301V21.9218V21.7295H11.5378H10.5763V20.768V20.5757H10.384H9.42251V19.6142V19.4219H9.23022H8.26874V18.4604V18.2681H8.07644H7.49955V17.3067V17.1144H7.30726H6.34578V16.1529V15.9606H6.15348Z" fill="white" stroke="white" stroke-width="0.384592"/>
</svg>
