<svg width="786" height="175" viewBox="0 0 786 175" fill="none" xmlns="http://www.w3.org/2000/svg">
<rect x="8" y="8" width="770" height="159" fill="black" stroke="#00FF00" stroke-width="14.7502"/>
<path d="M192.344 77.7871V89.4723H186.501V83.6297H168.974V89.4723H186.501V95.3148H168.974V101.157H186.501V95.3148H192.344V107H163.131V77.7871H192.344ZM227.415 89.4723V101.157H221.572V95.3148H204.044V101.157H198.202V77.7871H204.044V89.4723H227.415ZM239.1 77.7871V107H233.257V77.7871H239.1ZM221.572 101.157V107H204.044V101.157H221.572ZM291.675 83.6297H274.148V77.7871H291.675V83.6297ZM274.148 83.6297V107H268.305V83.6297H274.148ZM297.518 83.6297V107H291.675V83.6297H297.518ZM332.589 83.6297V95.3148H309.218V107H303.376V77.7871H326.746V83.6297H309.218V89.4723H326.746V83.6297H332.589ZM344.289 83.6297V77.7871H361.817V83.6297H344.289ZM344.289 101.157H338.446V83.6297H344.289V101.157ZM367.659 83.6297V101.157H361.817V83.6297H367.659ZM361.817 101.157V107H344.289V101.157H361.817ZM385.202 95.3148V101.157H379.36V107H373.517V77.7871H379.36V95.3148H385.202ZM402.73 77.7871V107H396.887V89.4723H391.045V83.6297H396.887V77.7871H402.73ZM391.045 89.4723V95.3148H385.202V89.4723H391.045ZM437.801 77.7871V83.6297H414.43V77.7871H437.801ZM414.43 83.6297V107H408.588V83.6297H414.43ZM470.932 83.6297V95.3148H447.561V107H441.719V77.7871H465.089V83.6297H447.561V89.4723H465.089V83.6297H470.932ZM482.632 83.6297V77.7871H500.16V83.6297H482.632ZM506.002 83.6297V107H500.16V101.157H482.632V107H476.789V83.6297H482.632V95.3148H500.16V83.6297H506.002ZM539.133 83.6297H521.605V77.7871H539.133V83.6297ZM521.605 83.6297V101.157H515.763V83.6297H521.605ZM544.976 83.6297V107H539.133V83.6297H544.976ZM515.763 101.157V107H509.92V101.157H515.763ZM562.496 95.3148V101.157H556.653V107H550.811V77.7871H556.653V95.3148H562.496ZM580.023 77.7871V107H574.181V89.4723H568.338V83.6297H574.181V77.7871H580.023ZM568.338 89.4723V95.3148H562.496V89.4723H568.338ZM613.131 83.6297V89.4723H607.289V83.6297H613.131ZM613.131 95.3148V101.157H607.289V95.3148H613.131ZM628.719 71.9445V77.7871H622.877V71.9445H628.719ZM622.877 77.7871V107H617.034V77.7871H622.877ZM622.877 107H628.719V112.843H622.877V107Z" fill="#00FF00"/>
</svg>
