<svg width="786" height="321" viewBox="0 0 786 321" fill="none" xmlns="http://www.w3.org/2000/svg">
<rect x="8" y="8" width="770" height="305" fill="black" stroke="#00FF00" stroke-width="14.7502"/>
<path d="M98.3945 82.2V87.6H92.9945V93H87.5945V66H92.9945V82.2H98.3945ZM114.595 66V93H109.195V76.8H103.795V71.4H109.195V66H114.595ZM103.795 76.8V82.2H98.3945V76.8H103.795ZM141.609 71.4H125.409V66H141.609V71.4ZM125.409 71.4V87.6H120.009V71.4H125.409ZM147.009 71.4V76.8H141.609V71.4H147.009ZM141.609 87.6V82.2H147.009V87.6H141.609ZM125.409 87.6H141.609V93H125.409V87.6ZM174.023 71.4H157.823V66H174.023V71.4ZM157.823 71.4V93H152.423V71.4H157.823ZM179.423 71.4V93H174.023V71.4H179.423ZM190.237 71.4V66H206.437V71.4H190.237ZM190.237 87.6H184.837V71.4H190.237V87.6ZM211.837 71.4V87.6H206.437V71.4H211.837ZM206.437 87.6V93H190.237V87.6H206.437ZM242.458 71.4H226.258V66H242.458V71.4ZM226.258 71.4V87.6H220.858V71.4H226.258ZM247.858 71.4V93H242.458V71.4H247.858ZM220.858 87.6V93H215.458V87.6H220.858ZM280.251 76.8V87.6H274.851V82.2H258.651V87.6H253.251V66H258.651V76.8H280.251ZM274.851 87.6V93H258.651V87.6H274.851ZM307.265 71.4H291.065V66H307.265V71.4ZM291.065 71.4V76.8H285.665V71.4H291.065ZM312.665 71.4V76.8H307.265V71.4H312.665ZM307.265 76.8V82.2H296.465V76.8H307.265ZM291.065 87.6H285.665V82.2H291.065V87.6ZM307.265 82.2H312.665V87.6H307.265V82.2ZM307.265 87.6V93H291.065V87.6H307.265ZM323.479 76.8H318.079V66H323.479V76.8ZM345.079 66V87.6H339.679V82.2H323.479V76.8H339.679V66H345.079ZM339.679 87.6V93H318.079V87.6H339.679ZM355.893 60.6V49.8H361.293V55.2H366.693V49.8H372.093V60.6H355.893ZM361.293 82.2V87.6H355.893V93H350.493V66H355.893V82.2H361.293ZM377.493 66V93H372.093V76.8H366.693V71.4H372.093V66H377.493ZM366.693 76.8V82.2H361.293V76.8H366.693ZM408.114 66V71.4H397.314V93H391.914V71.4H381.114V66H408.114ZM438.735 66V71.4H417.135V66H438.735ZM417.135 71.4V76.8H433.335V82.2H417.135V87.6H411.735V71.4H417.135ZM417.135 87.6H438.735V93H417.135V87.6ZM508.921 76.8V82.2H492.721V93H487.321V66H492.721V76.8H508.921ZM514.321 66V76.8H508.921V66H514.321ZM508.921 82.2H514.321V93H508.921V82.2ZM546.735 66V93H541.335V82.2H525.135V93H519.735V66H525.135V76.8H541.335V66H546.735ZM557.549 71.4V66H573.749V71.4H557.549ZM557.549 87.6H552.149V71.4H557.549V87.6ZM579.149 71.4V87.6H573.749V71.4H579.149ZM573.749 87.6V93H557.549V87.6H573.749ZM606.163 71.4H589.963V66H606.163V71.4ZM589.963 71.4V93H584.563V71.4H589.963ZM611.563 71.4V93H606.163V71.4H611.563ZM638.577 76.8V82.2H622.377V93H616.977V66H622.377V76.8H638.577ZM643.977 66V76.8H638.577V66H643.977ZM638.577 82.2H643.977V93H638.577V82.2ZM660.191 82.2V87.6H654.791V93H649.391V66H654.791V82.2H660.191ZM676.391 66V93H670.991V76.8H665.591V71.4H670.991V66H676.391ZM665.591 76.8V82.2H660.191V76.8H665.591ZM137.151 112.4V107H153.351V112.4H137.151ZM158.751 112.4V134H153.351V128.6H137.151V134H131.751V112.4H137.151V123.2H153.351V112.4H158.751ZM167.765 128.6V139.4H162.365V128.6H167.765ZM214.558 128.6V134H192.958V107H214.558V112.4H198.358V128.6H214.558ZM219.958 112.4V128.6H214.558V112.4H219.958ZM282.958 128.6V139.4H277.558V134H250.558V139.4H245.158V128.6H250.558V112.4H255.958V128.6H272.158V112.4H255.958V107H277.558V128.6H282.958ZM313.544 112.4H297.344V107H313.544V112.4ZM297.344 112.4V128.6H291.944V112.4H297.344ZM318.944 112.4V134H313.544V112.4H318.944ZM291.944 128.6V134H286.544V128.6H291.944ZM351.337 107V134H345.937V123.2H335.137V128.6H329.737V123.2H324.337V112.4H329.737V117.8H345.937V112.4H329.737V107H351.337ZM329.737 128.6V134H324.337V128.6H329.737ZM399.937 117.8V123.2H383.737V134H378.337V107H383.737V117.8H399.937ZM405.337 107V117.8H399.937V107H405.337ZM399.937 123.2H405.337V134H399.937V123.2ZM416.151 112.4V107H432.351V112.4H416.151ZM416.151 128.6H410.751V112.4H416.151V128.6ZM437.751 112.4V128.6H432.351V112.4H437.751ZM432.351 128.6V134H416.151V128.6H432.351ZM470.165 107V134H464.765V123.2H448.565V134H443.165V107H448.565V117.8H464.765V107H470.165ZM500.786 107V112.4H489.986V134H484.586V112.4H473.786V107H500.786ZM531.407 112.4V123.2H509.807V134H504.407V107H526.007V112.4H509.807V117.8H526.007V112.4H531.407ZM542.221 112.4V107H558.421V112.4H542.221ZM542.221 128.6H536.821V112.4H542.221V128.6ZM563.821 112.4V128.6H558.421V112.4H563.821ZM558.421 128.6V134H542.221V128.6H558.421ZM594.442 112.4H578.242V107H594.442V112.4ZM578.242 112.4V128.6H572.842V112.4H578.242ZM599.842 112.4V134H594.442V112.4H599.842ZM572.842 128.6V134H567.442V128.6H572.842ZM632.235 107V134H626.835V123.2H616.035V128.6H610.635V123.2H605.235V112.4H610.635V117.8H626.835V112.4H610.635V107H632.235ZM610.635 128.6V134H605.235V128.6H610.635ZM137.126 158.8V164.2H120.926V175H115.526V148H120.926V158.8H137.126ZM142.526 148V158.8H137.126V148H142.526ZM137.126 164.2H142.526V175H137.126V164.2ZM153.34 153.4V148H169.54V153.4H153.34ZM153.34 169.6H147.94V153.4H153.34V169.6ZM174.94 153.4V169.6H169.54V153.4H174.94ZM169.54 169.6V175H153.34V169.6H169.54ZM207.354 153.4V164.2H185.754V175H180.354V148H201.954V153.4H185.754V158.8H201.954V153.4H207.354ZM218.168 153.4V148H234.368V153.4H218.168ZM239.768 153.4V175H234.368V169.6H218.168V175H212.768V153.4H218.168V164.2H234.368V153.4H239.768ZM272.182 148V153.4H250.582V158.8H272.182V169.6H266.782V164.2H250.582V169.6H245.182V148H272.182ZM266.782 169.6V175H250.582V169.6H266.782ZM302.804 153.4H286.604V148H302.804V153.4ZM286.604 153.4V169.6H281.204V153.4H286.604ZM308.204 153.4V175H302.804V153.4H308.204ZM281.204 169.6V175H275.804V169.6H281.204ZM318.996 142.6V137.2H324.396V142.6H318.996ZM329.796 142.6V137.2H335.196V142.6H329.796ZM340.596 148V153.4H318.996V148H340.596ZM318.996 153.4V158.8H335.196V164.2H318.996V169.6H313.596V153.4H318.996ZM318.996 169.6H340.596V175H318.996V169.6ZM356.811 158.8H351.411V175H346.011V148H351.411V153.4H356.811V158.8ZM373.011 148V175H367.611V158.8H362.211V153.4H367.611V148H373.011ZM362.211 158.8V164.2H356.811V158.8H362.211ZM410.811 164.2V169.6H405.411V175H400.011V148H405.411V164.2H410.811ZM427.011 148V175H421.611V158.8H416.211V153.4H421.611V148H427.011ZM416.211 158.8V164.2H410.811V158.8H416.211ZM475.611 153.4H459.411V148H475.611V153.4ZM459.411 153.4V175H454.011V153.4H459.411ZM481.011 153.4V175H475.611V153.4H481.011ZM513.425 153.4V164.2H491.825V175H486.425V148H508.025V153.4H491.825V158.8H508.025V153.4H513.425ZM524.239 153.4V148H540.439V153.4H524.239ZM524.239 169.6H518.839V153.4H524.239V169.6ZM545.839 153.4V169.6H540.439V153.4H545.839ZM540.439 169.6V175H524.239V169.6H540.439ZM578.253 148V153.4H556.653V158.8H578.253V169.6H572.853V164.2H556.653V169.6H551.253V148H578.253ZM572.853 169.6V175H556.653V169.6H572.853ZM610.667 148V153.4H589.067V148H610.667ZM589.067 153.4V158.8H605.267V164.2H589.067V169.6H583.667V153.4H589.067ZM589.067 169.6H610.667V175H589.067V169.6ZM643.081 153.4H626.881V148H643.081V153.4ZM626.881 153.4V169.6H621.481V153.4H626.881ZM648.481 153.4V175H643.081V153.4H648.481ZM621.481 169.6V175H616.081V169.6H621.481ZM192.94 210.6V221.4H187.54V216H160.54V221.4H155.14V210.6H160.54V194.4H165.94V210.6H182.14V194.4H165.94V189H187.54V210.6H192.94ZM223.526 194.4H207.326V189H223.526V194.4ZM207.326 194.4V210.6H201.926V194.4H207.326ZM228.926 194.4V216H223.526V194.4H228.926ZM201.926 210.6V216H196.526V210.6H201.926ZM261.319 189V216H255.919V205.2H245.119V210.6H239.719V205.2H234.319V194.4H239.719V199.8H255.919V194.4H239.719V189H261.319ZM239.719 210.6V216H234.319V210.6H239.719ZM315.319 189V194.4H304.519V216H299.119V194.4H288.319V189H315.319ZM324.34 194.4V189H340.54V194.4H324.34ZM324.34 210.6H318.94V194.4H324.34V210.6ZM345.94 194.4V210.6H340.54V194.4H345.94ZM340.54 210.6V216H324.34V210.6H340.54ZM378.354 189V194.4H356.754V189H378.354ZM356.754 194.4V216H351.354V194.4H356.754ZM387.375 194.4V189H403.575V194.4H387.375ZM387.375 210.6H381.975V194.4H387.375V210.6ZM408.975 194.4V210.6H403.575V194.4H408.975ZM403.575 210.6V216H387.375V210.6H403.575ZM417.989 210.6V221.4H412.589V210.6H417.989ZM448.582 199.8H443.182V189H448.582V199.8ZM470.182 189V216H464.782V205.2H448.582V199.8H464.782V189H470.182ZM500.804 189V194.4H490.004V216H484.604V194.4H473.804V189H500.804ZM509.825 194.4V189H526.025V194.4H509.825ZM509.825 210.6H504.425V194.4H509.825V210.6ZM531.425 194.4V210.6H526.025V194.4H531.425ZM526.025 210.6V216H509.825V210.6H526.025ZM563.839 189V194.4H542.239V199.8H563.839V210.6H558.439V205.2H542.239V210.6H536.839V189H563.839ZM558.439 210.6V216H542.239V210.6H558.439ZM596.253 199.8V210.6H590.853V205.2H574.653V210.6H569.253V189H574.653V199.8H596.253ZM607.053 189V216H601.653V189H607.053ZM590.853 210.6V216H574.653V210.6H590.853ZM277.54 235.4H261.34V230H277.54V235.4ZM261.34 235.4V251.6H255.94V235.4H261.34ZM282.94 235.4V240.8H277.54V235.4H282.94ZM277.54 251.6V246.2H282.94V251.6H277.54ZM261.34 251.6H277.54V257H261.34V251.6ZM313.561 230V235.4H302.761V257H297.361V235.4H286.561V230H313.561ZM344.182 235.4V246.2H322.582V257H317.182V230H338.782V235.4H322.582V240.8H338.782V235.4H344.182ZM376.596 230V235.4H354.996V230H376.596ZM354.996 235.4V240.8H371.196V246.2H354.996V251.6H349.596V235.4H354.996ZM354.996 251.6H376.596V257H354.996V251.6ZM409.011 235.4H392.811V230H409.011V235.4ZM392.811 235.4V251.6H387.411V235.4H392.811ZM414.411 235.4V257H409.011V235.4H414.411ZM387.411 251.6V257H382.011V251.6H387.411ZM446.804 230V257H441.404V246.2H430.604V251.6H425.204V246.2H419.804V235.4H425.204V240.8H441.404V235.4H425.204V230H446.804ZM425.204 251.6V257H419.804V251.6H425.204ZM477.425 230V235.4H466.625V257H461.225V235.4H450.425V230H477.425ZM508.046 240.8V251.6H502.646V246.2H486.446V251.6H481.046V230H486.446V240.8H508.046ZM502.646 251.6V257H486.446V251.6H502.646Z" fill="#00FF00"/>
<path d="M715.6 39.6H706V30H715.6V39.6ZM754 30V39.6H744.4V30H754ZM725.2 49.2H715.6V39.6H725.2V49.2ZM744.4 39.6V49.2H734.8V39.6H744.4ZM734.8 49.2V58.8H725.2V49.2H734.8ZM725.2 58.8V68.4H715.6V58.8H725.2ZM734.8 58.8H744.4V68.4H734.8V58.8ZM715.6 68.4V78H706V68.4H715.6ZM744.4 68.4H754V78H744.4V68.4Z" fill="#00FF00"/>
</svg>
