<svg width="91" height="71" viewBox="0 0 91 71" fill="none" xmlns="http://www.w3.org/2000/svg">
<mask id="path-1-inside-1_150_152" fill="white">
<path fill-rule="evenodd" clip-rule="evenodd" d="M0 61V35.5H7.69988V26.6206H16.5789V17.7416H24.2515V8.87421H33V17.5H56.5V9H65V17.5H74V26.5H82V35.5H90.5V60.9046H81.6584V44.3494H73.9205L74 62.1471H65V53H25.5V62.1471H43V71H25.4413V62.1471H16.5V44.5H9V61H0ZM65 62.1471V71H47.3467V62.1471H65ZM65 9V0H74V9H65ZM24.2515 8.87421H15.3724V0H24.2281L24.2515 8.87421ZM32 27V36H24V27H32ZM66 36V27H58V36H66Z"/>
</mask>
<path fill-rule="evenodd" clip-rule="evenodd" d="M0 61V35.5H7.69988V26.6206H16.5789V17.7416H24.2515V8.87421H33V17.5H56.5V9H65V17.5H74V26.5H82V35.5H90.5V60.9046H81.6584V44.3494H73.9205L74 62.1471H65V53H25.5V62.1471H43V71H25.4413V62.1471H16.5V44.5H9V61H0ZM65 62.1471V71H47.3467V62.1471H65ZM65 9V0H74V9H65ZM24.2515 8.87421H15.3724V0H24.2281L24.2515 8.87421ZM32 27V36H24V27H32ZM66 36V27H58V36H66Z" fill="#00FF00"/>
<path d="M25.5 61.6471H25.4413V62.6471H25.5V61.6471ZM0 35.5V34.5H-1V35.5H0ZM0 61H-1V62H0V61ZM7.69988 35.5V36.5H8.69988V35.5H7.69988ZM7.69988 26.6206V25.6206H6.69988V26.6206H7.69988ZM16.5789 26.6206V27.6206H17.5789V26.6206H16.5789ZM16.5789 17.7416V16.7416H15.5789V17.7416H16.5789ZM24.2515 17.7416V18.7416H25.2515V17.7416H24.2515ZM33 8.87421H34V7.87421H33V8.87421ZM33 17.5H32V18.5H33V17.5ZM56.5 17.5V18.5H57.5V17.5H56.5ZM56.5 9V8H55.5V9H56.5ZM65 17.5H64V18.5H65V17.5ZM74 17.5H75V16.5H74V17.5ZM74 26.5H73V27.5H74V26.5ZM82 26.5H83V25.5H82V26.5ZM82 35.5H81V36.5H82V35.5ZM90.5 35.5H91.5V34.5H90.5V35.5ZM90.5 60.9046V61.9046H91.5V60.9046H90.5ZM81.6584 60.9046H80.6584V61.9046H81.6584V60.9046ZM81.6584 44.3494H82.6584V43.3494H81.6584V44.3494ZM73.9205 44.3494V43.3494H72.916L72.9205 44.3538L73.9205 44.3494ZM74 62.1471V63.1471H75.0045L75 62.1426L74 62.1471ZM65 53H66V52H65V53ZM25.5 53V52H24.5V53H25.5ZM25.5 62.1471H24.5V63.1471H25.5V62.1471ZM43 62.1471H44V61.1471H43V62.1471ZM43 71V72H44V71H43ZM25.4413 71H24.4413V72H25.4413V71ZM25.4413 62.1471H26.4413V61.1471H25.4413V62.1471ZM16.5 62.1471H15.5V63.1471H16.5V62.1471ZM16.5 44.5H17.5V43.5H16.5V44.5ZM9 44.5V43.5H8V44.5H9ZM9 61V62H10V61H9ZM65 71V72H66V71H65ZM47.3467 71H46.3467V72H47.3467V71ZM47.3467 62.1471V61.1471H46.3467V62.1471H47.3467ZM65 0V-1H64V0H65ZM74 0H75V-1H74V0ZM74 9V10H75V9H74ZM15.3724 8.87421H14.3724V9.87421H15.3724V8.87421ZM15.3724 0V-1H14.3724V0H15.3724ZM24.2281 0L25.2281 -0.00264L25.2254 -1H24.2281V0ZM32 36V37H33V36H32ZM32 27H33V26H32V27ZM24 36H23V37H24V36ZM24 27V26H23V27H24ZM66 27H67V26H66V27ZM66 36V37H67V36H66ZM58 27V26H57V27H58ZM58 36H57V37H58V36ZM-1 35.5V61H1V35.5H-1ZM7.69988 34.5H0V36.5H7.69988V34.5ZM6.69988 26.6206V35.5H8.69988V26.6206H6.69988ZM16.5789 25.6206H7.69988V27.6206H16.5789V25.6206ZM15.5789 17.7416V26.6206H17.5789V17.7416H15.5789ZM24.2515 16.7416H16.5789V18.7416H24.2515V16.7416ZM23.2515 8.87421V17.7416H25.2515V8.87421H23.2515ZM33 7.87421H24.2515V9.87421H33V7.87421ZM34 17.5V8.87421H32V17.5H34ZM56.5 16.5H33V18.5H56.5V16.5ZM55.5 9V17.5H57.5V9H55.5ZM65 8H56.5V10H65V8ZM66 17.5V9H64V17.5H66ZM74 16.5H65V18.5H74V16.5ZM75 26.5V17.5H73V26.5H75ZM82 25.5H74V27.5H82V25.5ZM83 35.5V26.5H81V35.5H83ZM90.5 34.5H82V36.5H90.5V34.5ZM91.5 60.9046V35.5H89.5V60.9046H91.5ZM81.6584 61.9046H90.5V59.9046H81.6584V61.9046ZM80.6584 44.3494V60.9046H82.6584V44.3494H80.6584ZM73.9205 45.3494H81.6584V43.3494H73.9205V45.3494ZM75 62.1426L74.9205 44.3449L72.9205 44.3538L73 62.1515L75 62.1426ZM65 63.1471H74V61.1471H65V63.1471ZM64 53V62.1471H66V53H64ZM25.5 54H65V52H25.5V54ZM26.5 62.1471V53H24.5V62.1471H26.5ZM43 61.1471H25.5V63.1471H43V61.1471ZM44 71V62.1471H42V71H44ZM25.4413 72H43V70H25.4413V72ZM24.4413 62.1471V71H26.4413V62.1471H24.4413ZM16.5 63.1471H25.4413V61.1471H16.5V63.1471ZM15.5 44.5V62.1471H17.5V44.5H15.5ZM9 45.5H16.5V43.5H9V45.5ZM10 61V44.5H8V61H10ZM0 62H9V60H0V62ZM66 71V62.1471H64V71H66ZM47.3467 72H65V70H47.3467V72ZM46.3467 62.1471V71H48.3467V62.1471H46.3467ZM65 61.1471H47.3467V63.1471H65V61.1471ZM64 0V9H66V0H64ZM74 -1H65V1H74V-1ZM75 9V0H73V9H75ZM65 10H74V8H65V10ZM15.3724 9.87421H24.2515V7.87421H15.3724V9.87421ZM14.3724 0V8.87421H16.3724V0H14.3724ZM24.2281 -1H15.3724V1H24.2281V-1ZM25.2515 8.87157L25.2281 -0.00264L23.2281 0.00264L23.2515 8.87685L25.2515 8.87157ZM33 36V27H31V36H33ZM24 37H32V35H24V37ZM23 27V36H25V27H23ZM32 26H24V28H32V26ZM65 27V36H67V27H65ZM58 28H66V26H58V28ZM59 36V27H57V36H59ZM66 35H58V37H66V35Z" fill="#00FF00" mask="url(#path-1-inside-1_150_152)"/>
</svg>
