<svg width="786" height="321" viewBox="0 0 786 321" fill="none" xmlns="http://www.w3.org/2000/svg">
<rect x="8" y="8" width="770" height="305" fill="black" stroke="#00FF00" stroke-width="14.7502"/>
<path d="M187.028 110.5V117.25H180.278V124H173.528V90.25H180.278V110.5H187.028ZM207.278 90.25V124H200.528V103.75H193.778V97H200.528V90.25H207.278ZM193.778 103.75V110.5H187.028V103.75H193.778ZM241.046 97H220.796V90.25H241.046V97ZM220.796 97V117.25H214.046V97H220.796ZM247.796 97V103.75H241.046V97H247.796ZM241.046 117.25V110.5H247.796V117.25H241.046ZM220.796 117.25H241.046V124H220.796V117.25ZM281.563 97H261.313V90.25H281.563V97ZM261.313 97V124H254.563V97H261.313ZM288.313 97V124H281.563V97H288.313ZM301.831 97V90.25H322.081V97H301.831ZM301.831 117.25H295.081V97H301.831V117.25ZM328.831 97V117.25H322.081V97H328.831ZM322.081 117.25V124H301.831V117.25H322.081ZM367.107 97H346.857V90.25H367.107V97ZM346.857 97V117.25H340.107V97H346.857ZM373.857 97V124H367.107V97H373.857ZM340.107 117.25V124H333.357V117.25H340.107ZM414.349 103.75V117.25H407.599V110.5H387.349V117.25H380.599V90.25H387.349V103.75H414.349ZM407.599 117.25V124H387.349V117.25H407.599ZM448.116 97H427.866V90.25H448.116V97ZM427.866 97V103.75H421.116V97H427.866ZM454.866 97V103.75H448.116V97H454.866ZM448.116 103.75V110.5H434.616V103.75H448.116ZM427.866 117.25H421.116V110.5H427.866V117.25ZM448.116 110.5H454.866V117.25H448.116V110.5ZM448.116 117.25V124H427.866V117.25H448.116ZM468.384 103.75H461.634V90.25H468.384V103.75ZM495.384 90.25V117.25H488.634V110.5H468.384V103.75H488.634V90.25H495.384ZM488.634 117.25V124H461.634V117.25H488.634ZM508.901 83.5V70H515.651V76.75H522.401V70H529.151V83.5H508.901ZM515.651 110.5V117.25H508.901V124H502.151V90.25H508.901V110.5H515.651ZM535.901 90.25V124H529.151V103.75H522.401V97H529.151V90.25H535.901ZM522.401 103.75V110.5H515.651V103.75H522.401ZM574.178 90.25V97H560.678V124H553.928V97H540.428V90.25H574.178ZM612.454 90.25V97H585.454V90.25H612.454ZM585.454 97V103.75H605.704V110.5H585.454V117.25H578.704V97H585.454ZM585.454 117.25H612.454V124H585.454V117.25ZM164.563 176.25V189.75H157.813V183H124.063V189.75H117.313V176.25H124.063V156H130.813V176.25H151.063V156H130.813V149.25H157.813V176.25H164.563ZM202.796 149.25V156H175.796V149.25H202.796ZM175.796 156V162.75H196.046V169.5H175.796V176.25H169.046V156H175.796ZM175.796 176.25H202.796V183H175.796V176.25ZM243.313 149.25V162.75H236.563V156H216.313V162.75H236.563V169.5H216.313V176.25H236.563V169.5H243.313V183H209.563V149.25H243.313ZM256.831 156V149.25H277.081V156H256.831ZM283.831 156V183H277.081V176.25H256.831V183H250.081V156H256.831V169.5H277.081V156H283.831ZM297.349 142.5V129H304.099V135.75H310.849V129H317.599V142.5H297.349ZM304.099 169.5V176.25H297.349V183H290.599V149.25H297.349V169.5H304.099ZM324.349 149.25V183H317.599V162.75H310.849V156H317.599V149.25H324.349ZM310.849 162.75V169.5H304.099V162.75H310.849ZM358.116 156H337.866V149.25H358.116V156ZM337.866 156V176.25H331.116V156H337.866ZM364.866 156V162.75H358.116V156H364.866ZM358.116 176.25V169.5H364.866V176.25H358.116ZM337.866 176.25H358.116V183H337.866V176.25ZM425.616 156H405.366V149.25H425.616V156ZM405.366 156V176.25H398.616V156H405.366ZM432.366 156V162.75H425.616V156H432.366ZM425.616 176.25V169.5H432.366V176.25H425.616ZM405.366 176.25H425.616V183H405.366V176.25ZM499.866 149.25V156H472.866V162.75H499.866V176.25H493.116V169.5H472.866V176.25H466.116V149.25H499.866ZM493.116 176.25V183H472.866V176.25H493.116ZM513.384 156V149.25H533.634V156H513.384ZM513.384 176.25H506.634V156H513.384V176.25ZM540.384 156V176.25H533.634V156H540.384ZM533.634 176.25V183H513.384V176.25H533.634ZM578.66 156H558.41V149.25H578.66V156ZM558.41 156V176.25H551.66V156H558.41ZM585.41 156V183H578.66V156H585.41ZM551.66 176.25V183H544.91V176.25H551.66ZM625.901 149.25V156H598.901V149.25H625.901ZM598.901 156V162.75H619.151V169.5H598.901V176.25H592.151V156H598.901ZM598.901 176.25H625.901V183H598.901V176.25ZM666.419 149.25V156H639.419V149.25H666.419ZM639.419 156V162.75H659.669V169.5H639.419V176.25H632.669V156H639.419ZM639.419 176.25H666.419V183H639.419V176.25ZM92.5195 235.25H85.7695V208.25H92.5195V235.25ZM139.77 235.25V242H92.5195V235.25H112.77V208.25H119.52V235.25H139.77ZM146.52 208.25V235.25H139.77V208.25H146.52ZM166.77 228.5V235.25H160.02V242H153.27V208.25H160.02V228.5H166.77ZM187.02 208.25V242H180.27V221.75H173.52V215H180.27V208.25H187.02ZM173.52 221.75V228.5H166.77V221.75H173.52ZM227.537 215V228.5H200.537V242H193.787V208.25H220.787V215H200.537V221.75H220.787V215H227.537ZM241.055 215V208.25H261.305V215H241.055ZM241.055 235.25H234.305V215H241.055V235.25ZM268.055 215V235.25H261.305V215H268.055ZM261.305 235.25V242H241.055V235.25H261.305ZM301.822 221.75V228.5H281.572V242H274.822V208.25H281.572V221.75H301.822ZM308.572 208.25V221.75H301.822V208.25H308.572ZM301.822 228.5H308.572V242H301.822V228.5ZM328.84 228.5V235.25H322.09V242H315.34V208.25H322.09V228.5H328.84ZM349.09 208.25V242H342.34V221.75H335.59V215H342.34V208.25H349.09ZM335.59 221.75V228.5H328.84V221.75H335.59ZM369.357 221.75H362.607V242H355.857V208.25H362.607V215H369.357V221.75ZM389.607 208.25V242H382.857V221.75H376.107V215H382.857V208.25H389.607ZM376.107 221.75V228.5H369.357V221.75H376.107ZM450.357 215H430.107V208.25H450.357V215ZM430.107 215V221.75H423.357V215H430.107ZM457.107 215V235.25H450.357V228.5H436.857V221.75H450.357V215H457.107ZM430.107 235.25H423.357V228.5H430.107V235.25ZM450.357 235.25V242H430.107V235.25H450.357ZM490.875 221.75V228.5H470.625V242H463.875V208.25H470.625V221.75H490.875ZM497.625 208.25V221.75H490.875V208.25H497.625ZM490.875 228.5H497.625V242H490.875V228.5ZM538.143 215V228.5H511.143V242H504.393V208.25H531.393V215H511.143V221.75H531.393V215H538.143ZM551.66 215V208.25H571.91V215H551.66ZM578.66 215V242H571.91V235.25H551.66V242H544.91V215H551.66V228.5H571.91V215H578.66ZM619.178 208.25V242H612.428V228.5H592.178V242H585.428V208.25H592.178V221.75H612.428V208.25H619.178ZM632.695 215V208.25H652.945V215H632.695ZM632.695 235.25H625.945V215H632.695V235.25ZM659.695 215V235.25H652.945V215H659.695ZM652.945 235.25V242H632.695V235.25H652.945ZM679.963 221.75H673.213V242H666.463V208.25H673.213V215H679.963V221.75ZM700.213 208.25V242H693.463V221.75H686.713V215H693.463V208.25H700.213ZM686.713 221.75V228.5H679.963V221.75H686.713Z" fill="#00FF00"/>
</svg>
