<svg width="152" height="152" viewBox="0 0 152 152" fill="none" xmlns="http://www.w3.org/2000/svg">
<rect x="6" y="6" width="140" height="140" stroke="#00FF00" stroke-width="10.2066"/>
<rect x="57.666" y="61" width="3.22222" height="52.2319" fill="#00FF00"/>
<rect x="55.4438" y="68" width="3.22222" height="39.942" fill="#00FF00"/>
<rect x="53.2217" y="74" width="3.22222" height="27.6522" fill="#00FF00"/>
<rect x="50.9995" y="77" width="3.22222" height="21.5072" fill="#00FF00"/>
<rect x="45.5552" y="80" width="6.44444" height="15.3623" fill="#00FF00"/>
<rect x="40.1108" y="83" width="6.44444" height="9.21739" fill="#00FF00"/>
<rect x="37.8887" y="84" width="3.22222" height="6.14493" fill="#00FF00"/>
<rect x="26" y="86" width="12.8889" height="3.07246" fill="#00FF00"/>
<rect width="3.22222" height="82.9565" transform="matrix(-1 0 0 1 63.1104 46)" fill="#00FF00"/>
<rect width="3.22222" height="52.2319" transform="matrix(-1 0 0 1 65.3325 61)" fill="#00FF00"/>
<rect width="3.22222" height="39.942" transform="matrix(-1 0 0 1 67.5547 68)" fill="#00FF00"/>
<rect width="3.22222" height="27.6522" transform="matrix(-1 0 0 1 69.7769 74)" fill="#00FF00"/>
<rect width="3.22222" height="21.5072" transform="matrix(-1 0 0 1 71.999 77)" fill="#00FF00"/>
<rect width="6.44444" height="15.3623" transform="matrix(-1 0 0 1 77.4434 80)" fill="#00FF00"/>
<rect width="6.44444" height="9.21739" transform="matrix(-1 0 0 1 82.8877 83)" fill="#00FF00"/>
<rect width="3.22222" height="6.14493" transform="matrix(-1 0 0 1 85.1099 84)" fill="#00FF00"/>
<rect width="12.8889" height="3.07246" transform="matrix(-1 0 0 1 96.9985 86)" fill="#00FF00"/>
<rect x="102.3" y="29.5634" width="2.26915" height="36.7827" fill="#00FF00"/>
<rect x="100.735" y="34.4929" width="2.26915" height="28.1279" fill="#00FF00"/>
<rect x="99.1699" y="38.7181" width="2.26915" height="19.4732" fill="#00FF00"/>
<rect x="97.605" y="40.8308" width="2.26915" height="15.1458" fill="#00FF00"/>
<rect x="93.771" y="42.9435" width="4.5383" height="10.8184" fill="#00FF00"/>
<rect x="89.937" y="45.0562" width="4.5383" height="6.49106" fill="#00FF00"/>
<rect x="88.3721" y="45.7604" width="2.26915" height="4.32738" fill="#00FF00"/>
<rect x="80" y="47.1688" width="9.0766" height="2.16369" fill="#00FF00"/>
<rect width="2.26915" height="58.4196" transform="matrix(-1 0 0 1 106.134 19)" fill="#00FF00"/>
<rect width="2.26915" height="36.7827" transform="matrix(-1 0 0 1 107.699 29.5634)" fill="#00FF00"/>
<rect width="2.26915" height="28.1279" transform="matrix(-1 0 0 1 109.264 34.4929)" fill="#00FF00"/>
<rect width="2.26915" height="19.4732" transform="matrix(-1 0 0 1 110.829 38.7181)" fill="#00FF00"/>
<rect width="2.26915" height="15.1458" transform="matrix(-1 0 0 1 112.394 40.8308)" fill="#00FF00"/>
<rect width="4.5383" height="10.8184" transform="matrix(-1 0 0 1 116.228 42.9435)" fill="#00FF00"/>
<rect width="4.5383" height="6.49106" transform="matrix(-1 0 0 1 120.062 45.0562)" fill="#00FF00"/>
<rect width="2.26915" height="4.32738" transform="matrix(-1 0 0 1 121.626 45.7604)" fill="#00FF00"/>
<rect width="9.0766" height="2.16369" transform="matrix(-1 0 0 1 129.999 47.1688)" fill="#00FF00"/>
</svg>
