<svg width="152" height="152" viewBox="0 0 152 152" fill="none" xmlns="http://www.w3.org/2000/svg">
<rect x="6" y="6" width="140" height="140" stroke="#00FF00" stroke-width="10.2066"/>
<rect x="33" y="68" width="9" height="18" fill="#00FF00"/>
<rect x="105" y="71" width="9" height="18" fill="#00FF00"/>
<rect x="36" y="59" width="6" height="9" fill="#00FF00"/>
<rect x="39" y="53" width="6" height="12" fill="#00FF00"/>
<rect x="36" y="83" width="6" height="12" fill="#00FF00"/>
<rect x="39" y="89" width="6" height="12" fill="#00FF00"/>
<rect x="42" y="95" width="6" height="9" fill="#00FF00"/>
<rect x="45" y="98" width="6" height="9" fill="#00FF00"/>
<rect x="48" y="101" width="6" height="9" fill="#00FF00"/>
<rect x="51" y="104" width="6" height="9" fill="#00FF00"/>
<rect x="57" y="107" width="6" height="9" fill="#00FF00"/>
<rect x="63" y="110" width="27" height="6" fill="#00FF00"/>
<rect x="66" y="113" width="15" height="6" fill="#00FF00"/>
<rect x="84" y="107" width="12" height="6" fill="#00FF00"/>
<rect x="90" y="104" width="12" height="6" fill="#00FF00"/>
<rect x="96" y="101" width="10" height="6" fill="#00FF00"/>
<rect x="99" y="95" width="10" height="6" fill="#00FF00"/>
<rect x="102" y="89" width="10" height="6" fill="#00FF00"/>
<rect x="101" y="65" width="10" height="6" fill="#00FF00"/>
<rect x="98" y="59" width="10" height="6" fill="#00FF00"/>
<rect x="96" y="56" width="10" height="6" fill="#00FF00"/>
<rect x="93" y="53" width="10" height="6" fill="#00FF00"/>
<rect x="89" y="50" width="10" height="6" fill="#00FF00"/>
<rect x="81" y="44" width="10" height="6" fill="#00FF00"/>
<rect x="86" y="44" width="10" height="6" fill="#00FF00"/>
<rect x="86" y="38" width="10" height="7" fill="#00FF00"/>
<rect x="78" y="41" width="10" height="6" fill="#00FF00"/>
<rect x="96" y="38" width="10" height="7" fill="#00FF00"/>
<rect x="99" y="35" width="17" height="6" fill="#00FF00"/>
<rect x="110" y="32" width="10" height="6" fill="#00FF00"/>
<rect x="81" y="50" width="9" height="9" fill="#00FF00"/>
<rect x="83" y="59" width="7" height="9" fill="#00FF00"/>
<rect x="85" y="62" width="7" height="12" fill="#00FF00"/>
<rect x="88" y="70" width="7" height="12" fill="#00FF00"/>
<rect x="42" y="47" width="6" height="12" fill="#00FF00"/>
<rect x="45" y="44" width="6" height="9" fill="#00FF00"/>
<rect x="48" y="41" width="6" height="9" fill="#00FF00"/>
</svg>
