<svg width="849" height="368" viewBox="0 0 849 368" fill="none" xmlns="http://www.w3.org/2000/svg">
<rect x="8" y="8" width="833" height="352" fill="black" stroke="#00FF00" stroke-width="15.957"/>
<path d="M197.764 67.5596V72H188.883V49.7982H193.324V67.5596H197.764ZM211.085 49.7982V72H206.645V63.1193H202.204V58.6789H206.645V49.7982H211.085ZM202.204 63.1193V67.5596H197.764V63.1193H202.204ZM237.739 49.7982V54.2386H219.977V49.7982H237.739ZM219.977 54.2386V72H215.537V54.2386H219.977ZM262.918 54.2386V63.1193H245.157V72H240.716V49.7982H258.478V54.2386H245.157V58.6789H258.478V54.2386H262.918ZM271.81 54.2386V49.7982H285.131V54.2386H271.81ZM289.572 54.2386V72H285.131V67.5596H271.81V72H267.37V54.2386H271.81V63.1193H285.131V54.2386H289.572ZM319.174 54.2386V58.6789H314.734V54.2386H319.174ZM332.495 54.2386V58.6789H328.055V54.2386H332.495ZM314.734 58.6789V63.1193H310.294V58.6789H314.734ZM328.055 58.6789V63.1193H323.615V58.6789H328.055ZM314.734 63.1193H319.174V67.5596H314.734V63.1193ZM328.055 63.1193H332.495V67.5596H328.055V63.1193ZM341.365 54.2386H336.924V49.7982H341.365V54.2386ZM368.007 58.6789V63.1193H359.126V72H354.686V63.1193H345.805V58.6789H354.686V49.7982H359.126V58.6789H368.007ZM376.887 49.7982V54.2386H372.447V49.7982H376.887ZM345.805 58.6789H341.365V54.2386H345.805V58.6789ZM372.447 54.2386V58.6789H368.007V54.2386H372.447ZM345.805 63.1193V67.5596H341.365V63.1193H345.805ZM368.007 63.1193H372.447V67.5596H368.007V63.1193ZM341.365 67.5596V72H336.924V67.5596H341.365ZM372.447 67.5596H376.887V72H372.447V67.5596ZM390.209 63.1193V67.5596H385.768V72H381.328V49.7982H385.768V63.1193H390.209ZM403.53 49.7982V72H399.089V58.6789H394.649V54.2386H399.089V49.7982H403.53ZM394.649 58.6789V63.1193H390.209V58.6789H394.649ZM425.743 54.2386H412.422V49.7982H425.743V54.2386ZM412.422 54.2386V58.6789H407.982V54.2386H412.422ZM430.183 54.2386V58.6789H425.743V54.2386H430.183ZM425.743 58.6789V63.1193H416.862V58.6789H425.743ZM412.422 67.5596H407.982V63.1193H412.422V67.5596ZM425.743 63.1193H430.183V67.5596H425.743V63.1193ZM425.743 67.5596V72H412.422V67.5596H425.743ZM456.837 49.7982V72H452.397V63.1193H439.076V72H434.635V49.7982H439.076V58.6789H452.397V49.7982H456.837ZM483.491 58.6789V67.5596H479.05V63.1193H465.729V67.5596H461.289V49.7982H465.729V58.6789H483.491ZM479.05 67.5596V72H465.729V67.5596H479.05ZM490.909 58.6789H486.468V54.2386H490.909V58.6789ZM504.23 58.6789H499.789V54.2386H504.23V58.6789ZM495.349 58.6789V63.1193H490.909V58.6789H495.349ZM508.67 58.6789V63.1193H504.23V58.6789H508.67ZM490.909 63.1193V67.5596H486.468V63.1193H490.909ZM504.23 63.1193V67.5596H499.789V63.1193H504.23ZM550.09 58.6789V63.1193H527.889V58.6789H550.09ZM588.556 54.2386H575.235V49.7982H588.556V54.2386ZM575.235 54.2386V58.6789H570.795V54.2386H575.235ZM592.997 54.2386V67.5596H588.556V63.1193H579.675V58.6789H588.556V54.2386H592.997ZM575.235 67.5596H570.795V63.1193H575.235V67.5596ZM588.556 67.5596V72H575.235V67.5596H588.556ZM618.176 49.7982V54.2386H609.295V72H604.855V54.2386H595.974V49.7982H618.176ZM625.594 54.2386V49.7982H638.915V54.2386H625.594ZM625.594 67.5596H621.154V54.2386H625.594V67.5596ZM643.355 54.2386V67.5596H638.915V54.2386H643.355ZM638.915 67.5596V72H625.594V67.5596H638.915ZM219.177 99.6789V104.119H205.855V113H201.415V90.7982H205.855V99.6789H219.177ZM223.617 90.7982V99.6789H219.177V90.7982H223.617ZM219.177 104.119H223.617V113H219.177V104.119ZM250.271 95.2386H236.95V90.7982H250.271V95.2386ZM236.95 95.2386V108.56H232.509V95.2386H236.95ZM254.711 95.2386V113H250.271V95.2386H254.711ZM232.509 108.56V113H228.069V108.56H232.509ZM281.347 90.7982V95.2386H263.586V90.7982H281.347ZM263.586 95.2386V99.6789H276.907V104.119H263.586V108.56H259.146V95.2386H263.586ZM263.586 108.56H281.347V113H263.586V108.56ZM306.527 90.7982V95.2386H297.646V113H293.206V95.2386H284.325V90.7982H306.527ZM313.945 95.2386V90.7982H327.266V95.2386H313.945ZM313.945 108.56H309.504V95.2386H313.945V108.56ZM331.706 95.2386V108.56H327.266V95.2386H331.706ZM327.266 108.56V113H313.945V108.56H327.266ZM340.598 99.6789H336.158V90.7982H340.598V99.6789ZM358.36 90.7982V113H353.92V104.119H340.598V99.6789H353.92V90.7982H358.36ZM385.014 90.7982V113H380.573V104.119H367.252V113H362.812V90.7982H367.252V99.6789H380.573V90.7982H385.014ZM411.667 99.6789V108.56H407.227V104.119H393.906V108.56H389.466V90.7982H393.906V99.6789H411.667ZM420.548 90.7982V113H416.108V90.7982H420.548ZM407.227 108.56V113H393.906V108.56H407.227ZM429.435 86.3578V77.4771H433.875V81.9175H438.315V77.4771H442.756V86.3578H429.435ZM433.875 104.119V108.56H429.435V113H424.994V90.7982H429.435V104.119H433.875ZM447.196 90.7982V113H442.756V99.6789H438.315V95.2386H442.756V90.7982H447.196ZM438.315 99.6789V104.119H433.875V99.6789H438.315ZM473.838 95.2386V90.7982H487.159V95.2386H473.838ZM491.6 95.2386V113H487.159V108.56H473.838V113H469.398V95.2386H473.838V104.119H487.159V95.2386H491.6ZM518.253 90.7982V99.6789H513.813V95.2386H500.492V99.6789H513.813V104.119H500.492V108.56H513.813V104.119H518.253V113H496.052V90.7982H518.253ZM543.433 90.7982V95.2386H534.552V113H530.112V95.2386H521.231V90.7982H543.433ZM550.851 95.2386V90.7982H564.172V95.2386H550.851ZM550.851 108.56H546.41V95.2386H550.851V108.56ZM568.612 95.2386V108.56H564.172V95.2386H568.612ZM564.172 108.56V113H550.851V108.56H564.172ZM581.945 99.6789H577.504V113H573.064V90.7982H577.504V95.2386H581.945V99.6789ZM595.266 90.7982V113H590.826V99.6789H586.385V95.2386H590.826V90.7982H595.266ZM586.385 99.6789V104.119H581.945V99.6789H586.385ZM604.158 95.2386V90.7982H617.479V95.2386H604.158ZM621.92 95.2386V113H617.479V108.56H604.158V113H599.718V95.2386H604.158V104.119H617.479V95.2386H621.92ZM647.099 90.7982V95.2386H638.218V113H633.778V95.2386H624.897V90.7982H647.099ZM650.059 108.56V117.44H645.619V108.56H650.059ZM148.871 136.239H135.55V131.798H148.871V136.239ZM135.55 136.239V154H131.109V136.239H135.55ZM153.311 136.239V154H148.871V136.239H153.311ZM179.965 136.239V145.119H162.203V154H157.763V131.798H175.525V136.239H162.203V140.679H175.525V136.239H179.965ZM193.298 145.119V149.56H188.857V154H184.417V131.798H188.857V145.119H193.298ZM206.619 131.798V154H202.178V140.679H197.738V136.239H202.178V131.798H206.619ZM197.738 140.679V145.119H193.298V140.679H197.738ZM240.673 149.56V158.44H236.233V154H214.031V158.44H209.59V149.56H214.031V136.239H218.471V149.56H231.792V136.239H218.471V131.798H236.233V149.56H240.673ZM248.062 140.679H243.622V131.798H248.062V140.679ZM265.823 131.798V149.56H261.383V145.119H248.062V140.679H261.383V131.798H265.823ZM261.383 149.56V154H243.622V149.56H261.383ZM279.156 140.679H274.716V154H270.275V131.798H274.716V136.239H279.156V140.679ZM292.477 131.798V154H288.037V140.679H283.596V136.239H288.037V131.798H292.477ZM283.596 140.679V145.119H279.156V140.679H283.596ZM301.369 136.239V131.798H314.691V136.239H301.369ZM319.131 136.239V154H314.691V149.56H301.369V154H296.929V136.239H301.369V145.119H314.691V136.239H319.131ZM345.785 131.798V154H341.344V145.119H328.023V154H323.583V131.798H328.023V140.679H341.344V131.798H345.785ZM372.438 131.798V154H367.998V145.119H354.677V154H350.237V131.798H354.677V140.679H367.998V131.798H372.438ZM399.092 140.679V149.56H394.652V145.119H381.331V149.56H376.89V131.798H381.331V140.679H399.092ZM407.973 131.798V154H403.532V131.798H407.973ZM394.652 149.56V154H381.331V149.56H394.652ZM416.859 127.358V118.477H421.3V122.917H425.74V118.477H430.18V127.358H416.859ZM421.3 145.119V149.56H416.859V154H412.419V131.798H416.859V145.119H421.3ZM434.621 131.798V154H430.18V140.679H425.74V136.239H430.18V131.798H434.621ZM425.74 140.679V145.119H421.3V140.679H425.74ZM461.263 136.239V131.798H474.584V136.239H461.263ZM479.024 136.239V154H474.584V149.56H461.263V154H456.823V136.239H461.263V145.119H474.584V136.239H479.024ZM505.678 131.798V154H501.238V145.119H487.917V154H483.476V131.798H487.917V140.679H501.238V131.798H505.678ZM532.332 131.798V136.239H514.57V131.798H532.332ZM514.57 136.239V154H510.13V136.239H514.57ZM554.534 136.239H541.213V131.798H554.534V136.239ZM541.213 136.239V149.56H536.772V136.239H541.213ZM558.974 136.239V154H554.534V136.239H558.974ZM536.772 149.56V154H532.332V149.56H536.772ZM572.289 145.119V149.56H567.849V154H563.409V131.798H567.849V145.119H572.289ZM585.61 131.798V154H581.17V140.679H576.73V136.239H581.17V131.798H585.61ZM576.73 140.679V145.119H572.289V140.679H576.73ZM594.503 127.358V118.477H598.943V122.917H603.383V118.477H607.824V127.358H594.503ZM598.943 145.119V149.56H594.503V154H590.062V131.798H594.503V145.119H598.943ZM612.264 131.798V154H607.824V140.679H603.383V136.239H607.824V131.798H612.264ZM603.383 140.679V145.119H598.943V140.679H603.383ZM634.478 136.239H621.156V131.798H634.478V136.239ZM621.156 136.239V149.56H616.716V136.239H621.156ZM638.918 136.239V140.679H634.478V136.239H638.918ZM634.478 149.56V145.119H638.918V149.56H634.478ZM621.156 149.56H634.478V154H621.156V149.56ZM661.131 140.679V145.119H647.81V154H643.37V131.798H647.81V140.679H661.131ZM665.572 131.798V140.679H661.131V131.798H665.572ZM661.131 145.119H665.572V154H661.131V145.119ZM678.904 145.119V149.56H674.464V154H670.024V131.798H674.464V145.119H678.904ZM692.225 131.798V154H687.785V140.679H683.345V136.239H687.785V131.798H692.225ZM683.345 140.679V145.119H678.904V140.679H683.345ZM705.558 140.679H701.118V154H696.677V131.798H701.118V136.239H705.558V140.679ZM718.879 131.798V154H714.439V140.679H709.998V136.239H714.439V131.798H718.879ZM709.998 140.679V145.119H705.558V140.679H709.998ZM89.6313 181.679H85.1909V195H80.7505V172.798H85.1909V177.239H89.6313V181.679ZM102.952 172.798V195H98.512V181.679H94.0716V177.239H98.512V172.798H102.952ZM94.0716 181.679V186.119H89.6313V181.679H94.0716ZM111.845 177.239V172.798H125.166V177.239H111.845ZM129.606 177.239V195H125.166V190.56H111.845V195H107.404V177.239H111.845V186.119H125.166V177.239H129.606ZM154.785 172.798V177.239H145.905V195H141.464V177.239H132.584V172.798H154.785ZM179.965 172.798V177.239H162.203V172.798H179.965ZM162.203 177.239V181.679H175.525V186.119H162.203V190.56H157.763V177.239H162.203ZM162.203 190.56H179.965V195H162.203V190.56ZM193.298 181.679H188.857V195H184.417V172.798H188.857V177.239H193.298V181.679ZM206.619 172.798V195H202.178V181.679H197.738V177.239H202.178V172.798H206.619ZM197.738 181.679V186.119H193.298V181.679H197.738ZM215.511 177.239V172.798H228.832V177.239H215.511ZM233.272 177.239V195H228.832V190.56H215.511V195H211.071V177.239H215.511V186.119H228.832V177.239H233.272ZM258.452 172.798V177.239H249.571V195H245.131V177.239H236.25V172.798H258.452ZM270.31 186.119V190.56H265.87V195H261.429V172.798H265.87V186.119H270.31ZM283.631 172.798V195H279.191V181.679H274.75V177.239H279.191V172.798H283.631ZM274.75 181.679V186.119H270.31V181.679H274.75ZM305.845 181.679V186.119H292.523V195H288.083V172.798H292.523V181.679H305.845ZM310.285 172.798V181.679H305.845V172.798H310.285ZM305.845 186.119H310.285V195H305.845V186.119ZM319.177 177.239V172.798H332.498V177.239H319.177ZM319.177 190.56H314.737V177.239H319.177V190.56ZM336.939 177.239V190.56H332.498V177.239H336.939ZM332.498 190.56V195H319.177V190.56H332.498ZM350.271 181.679H345.831V195H341.391V172.798H345.831V177.239H350.271V181.679ZM363.592 172.798V195H359.152V181.679H354.712V177.239H359.152V172.798H363.592ZM354.712 181.679V186.119H350.271V181.679H354.712ZM415.397 190.56V199.44H410.956V195H388.754V199.44H384.314V190.56H388.754V177.239H393.195V190.56H406.516V177.239H393.195V172.798H410.956V190.56H415.397ZM422.786 181.679H418.345V172.798H422.786V181.679ZM453.868 181.679V186.119H440.547V195H436.107V186.119H422.786V181.679H436.107V172.798H440.547V181.679H453.868ZM458.308 172.798V181.679H453.868V172.798H458.308ZM422.786 186.119V195H418.345V186.119H422.786ZM453.868 186.119H458.308V195H453.868V186.119ZM467.189 177.239V172.798H480.51V177.239H467.189ZM467.189 190.56H462.749V177.239H467.189V190.56ZM484.951 177.239V190.56H480.51V177.239H484.951ZM480.51 190.56V195H467.189V190.56H480.51ZM511.604 172.798V195H507.164V186.119H493.843V195H489.403V172.798H493.843V181.679H507.164V172.798H511.604ZM520.497 177.239V172.798H533.818V177.239H520.497ZM520.497 190.56H516.056V177.239H520.497V190.56ZM538.258 177.239V190.56H533.818V177.239H538.258ZM533.818 190.56V195H520.497V190.56H533.818ZM551.591 181.679H547.15V195H542.71V172.798H547.15V177.239H551.591V181.679ZM564.912 172.798V195H560.471V181.679H556.031V177.239H560.471V172.798H564.912ZM556.031 181.679V186.119H551.591V181.679H556.031ZM604.875 181.679V186.119H591.554V195H587.114V172.798H591.554V181.679H604.875ZM609.315 172.798V181.679H604.875V172.798H609.315ZM604.875 186.119H609.315V195H604.875V186.119ZM618.208 177.239V172.798H631.529V177.239H618.208ZM618.208 190.56H613.767V177.239H618.208V190.56ZM635.969 177.239V190.56H631.529V177.239H635.969ZM631.529 190.56V195H618.208V190.56H631.529ZM662.623 172.798V195H658.183V186.119H644.861V195H640.421V172.798H644.861V181.679H658.183V172.798H662.623ZM689.277 172.798V181.679H684.836V177.239H671.515V181.679H684.836V186.119H671.515V190.56H684.836V186.119H689.277V195H667.075V172.798H689.277ZM715.93 172.798V177.239H698.169V172.798H715.93ZM698.169 177.239V181.679H711.49V186.119H698.169V190.56H693.729V177.239H698.169ZM698.169 190.56H715.93V195H698.169V190.56ZM742.584 172.798V177.239H724.823V172.798H742.584ZM724.823 177.239V181.679H738.144V186.119H724.823V190.56H720.382V177.239H724.823ZM724.823 190.56H742.584V195H724.823V190.56ZM755.917 181.679H751.476V195H747.036V172.798H751.476V177.239H755.917V181.679ZM769.238 172.798V195H764.798V181.679H760.357V177.239H764.798V172.798H769.238ZM760.357 181.679V186.119H755.917V181.679H760.357ZM116.308 213.798V222.679H111.868V218.239H98.5467V222.679H111.868V227.119H98.5467V231.56H111.868V227.119H116.308V236H94.1063V213.798H116.308ZM160.712 231.56V236H138.51V231.56H147.391V218.239H138.51V213.798H151.831V231.56H160.712ZM187.365 213.798V231.56H182.925V227.119H165.164V218.239H169.604V222.679H182.925V218.239H169.604V213.798H187.365ZM182.925 231.56V236H165.164V231.56H182.925ZM212.545 213.798V222.679H208.105V218.239H190.343V213.798H212.545ZM208.105 222.679V227.119H203.664V222.679H208.105ZM203.664 227.119V231.56H199.224V227.119H203.664ZM199.224 231.56V236H194.783V231.56H199.224ZM219.963 218.239V213.798H233.284V218.239H219.963ZM219.963 231.56H215.522V218.239H219.963V231.56ZM237.724 218.239V231.56H233.284V218.239H237.724ZM233.284 231.56V236H219.963V231.56H233.284ZM282.128 213.798V218.239H264.366V213.798H282.128ZM264.366 218.239V236H259.926V218.239H264.366ZM285.088 231.56V236H280.648V231.56H285.088ZM328.006 213.798V236H323.565V227.119H310.244V236H305.804V213.798H310.244V222.679H323.565V213.798H328.006ZM336.898 218.239V213.798H350.219V218.239H336.898ZM354.66 218.239V236H350.219V231.56H336.898V236H332.458V218.239H336.898V227.119H350.219V218.239H354.66ZM363.552 222.679H359.112V213.798H363.552V222.679ZM394.634 222.679V227.119H381.313V236H376.873V227.119H363.552V222.679H376.873V213.798H381.313V222.679H394.634ZM399.075 213.798V222.679H394.634V213.798H399.075ZM363.552 227.119V236H359.112V227.119H363.552ZM394.634 227.119H399.075V236H394.634V227.119ZM412.396 227.119V231.56H407.955V236H403.515V213.798H407.955V227.119H412.396ZM425.717 213.798V236H421.277V222.679H416.836V218.239H421.277V213.798H425.717ZM416.836 222.679V227.119H412.396V222.679H416.836ZM439.05 222.679H434.609V236H430.169V213.798H434.609V218.239H439.05V222.679ZM452.371 213.798V236H447.93V222.679H443.49V218.239H447.93V213.798H452.371ZM443.49 222.679V227.119H439.05V222.679H443.49ZM461.263 218.239V213.798H474.584V218.239H461.263ZM479.024 218.239V236H474.584V231.56H461.263V236H456.823V218.239H461.263V227.119H474.584V218.239H479.024ZM505.678 213.798V236H501.238V227.119H492.357V231.56H487.917V227.119H483.476V218.239H487.917V222.679H501.238V218.239H487.917V213.798H505.678ZM487.917 231.56V236H483.476V231.56H487.917ZM550.082 213.798V236H545.641V227.119H532.32V236H527.88V213.798H532.32V222.679H545.641V213.798H550.082ZM558.974 218.239V213.798H572.295V218.239H558.974ZM576.735 218.239V236H572.295V231.56H558.974V236H554.534V218.239H558.974V227.119H572.295V218.239H576.735ZM616.699 222.679V227.119H603.378V236H598.937V213.798H603.378V222.679H616.699ZM621.139 213.798V222.679H616.699V213.798H621.139ZM616.699 227.119H621.139V236H616.699V227.119ZM647.793 218.239H634.472V213.798H647.793V218.239ZM634.472 218.239V231.56H630.031V218.239H634.472ZM652.233 218.239V236H647.793V218.239H652.233ZM630.031 231.56V236H625.591V231.56H630.031ZM678.87 213.798V218.239H661.108V213.798H678.87ZM661.108 218.239V222.679H674.429V227.119H661.108V231.56H656.668V218.239H661.108ZM661.108 231.56H678.87V236H661.108V231.56ZM704.049 213.798V218.239H695.168V236H690.728V218.239H681.847V213.798H704.049ZM724.788 222.679V227.119H711.467V236H707.027V213.798H711.467V222.679H724.788ZM729.228 213.798V222.679H724.788V213.798H729.228ZM724.788 227.119H729.228V236H724.788V227.119ZM742.561 227.119V231.56H738.121V236H733.68V213.798H738.121V227.119H742.561ZM755.882 213.798V236H751.442V222.679H747.001V218.239H751.442V213.798H755.882ZM747.001 222.679V227.119H742.561V222.679H747.001ZM82.2798 259.239H68.9587V254.798H82.2798V259.239ZM68.9587 259.239V277H64.5184V259.239H68.9587ZM86.7202 259.239V277H82.2798V259.239H86.7202ZM95.6125 259.239V254.798H108.934V259.239H95.6125ZM95.6125 272.56H91.1721V259.239H95.6125V272.56ZM113.374 259.239V272.56H108.934V259.239H113.374ZM108.934 272.56V277H95.6125V272.56H108.934ZM138.553 259.239H125.232V254.798H138.553V259.239ZM125.232 259.239V272.56H120.792V259.239H125.232ZM142.994 259.239V277H138.553V259.239H142.994ZM120.792 272.56V277H116.351V272.56H120.792ZM169.63 254.798V277H165.19V268.119H156.309V272.56H151.869V268.119H147.428V259.239H151.869V263.679H165.19V259.239H151.869V254.798H169.63ZM151.869 272.56V277H147.428V272.56H151.869ZM177.042 272.56V281.44H172.602V272.56H177.042ZM215.52 259.239H202.198V254.798H215.52V259.239ZM202.198 259.239V272.56H197.758V259.239H202.198ZM219.96 259.239V263.679H215.52V259.239H219.96ZM215.52 272.56V268.119H219.96V272.56H215.52ZM202.198 272.56H215.52V277H202.198V272.56ZM228.852 259.239V254.798H242.173V259.239H228.852ZM228.852 272.56H224.412V259.239H228.852V272.56ZM246.614 259.239V272.56H242.173V259.239H246.614ZM242.173 272.56V277H228.852V272.56H242.173ZM268.827 259.239H255.506V254.798H268.827V259.239ZM255.506 259.239V263.679H251.066V259.239H255.506ZM273.267 259.239V263.679H268.827V259.239H273.267ZM268.827 263.679V268.119H259.946V263.679H268.827ZM255.506 272.56H251.066V268.119H255.506V272.56ZM268.827 268.119H273.267V272.56H268.827V268.119ZM268.827 272.56V277H255.506V272.56H268.827ZM307.322 272.56V281.44H302.881V277H280.68V281.44H276.239V272.56H280.68V259.239H285.12V272.56H298.441V259.239H285.12V254.798H302.881V272.56H307.322ZM314.711 259.239V254.798H328.032V259.239H314.711ZM332.472 259.239V277H328.032V272.56H314.711V277H310.27V259.239H314.711V268.119H328.032V259.239H332.472ZM359.126 254.798V263.679H354.686V259.239H341.365V263.679H354.686V268.119H341.365V272.56H354.686V268.119H359.126V277H336.924V254.798H359.126ZM368.018 259.239V254.798H381.339V259.239H368.018ZM385.78 259.239V277H381.339V272.56H368.018V277H363.578V259.239H368.018V268.119H381.339V259.239H385.78ZM394.672 250.358V241.477H399.112V245.917H403.553V241.477H407.993V250.358H394.672ZM399.112 268.119V272.56H394.672V277H390.232V254.798H394.672V268.119H399.112ZM412.433 254.798V277H407.993V263.679H403.553V259.239H407.993V254.798H412.433ZM403.553 263.679V268.119H399.112V263.679H403.553ZM439.076 263.679H434.635V254.798H439.076V263.679ZM470.158 263.679V268.119H456.837V277H452.397V268.119H439.076V263.679H452.397V254.798H456.837V263.679H470.158ZM474.599 254.798V263.679H470.158V254.798H474.599ZM439.076 268.119V277H434.635V268.119H439.076ZM470.158 268.119H474.599V277H470.158V268.119ZM487.92 268.119V272.56H483.479V277H479.039V254.798H483.479V268.119H487.92ZM501.241 254.798V277H496.8V263.679H492.36V259.239H496.8V254.798H501.241ZM492.36 263.679V268.119H487.92V263.679H492.36ZM523.454 259.239H510.133V254.798H523.454V259.239ZM510.133 259.239V263.679H505.693V259.239H510.133ZM527.894 259.239V263.679H523.454V259.239H527.894ZM523.454 263.679V268.119H514.573V263.679H523.454ZM510.133 272.56H505.693V268.119H510.133V272.56ZM523.454 268.119H527.894V272.56H523.454V268.119ZM523.454 272.56V277H510.133V272.56H523.454ZM554.548 254.798V277H550.108V268.119H536.787V277H532.346V254.798H536.787V263.679H550.108V254.798H554.548ZM581.202 263.679V272.56H576.762V268.119H563.44V272.56H559V254.798H563.44V263.679H581.202ZM576.762 272.56V277H563.44V272.56H576.762ZM612.284 268.119V272.56H607.844V277H603.404V254.798H607.844V268.119H612.284ZM625.605 254.798V277H621.165V263.679H616.725V259.239H621.165V254.798H625.605ZM616.725 263.679V268.119H612.284V263.679H616.725ZM665.569 259.239H652.248V254.798H665.569V259.239ZM652.248 259.239V272.56H647.807V259.239H652.248ZM670.009 259.239V263.679H665.569V259.239H670.009ZM665.569 272.56V268.119H670.009V272.56H665.569ZM652.248 272.56H665.569V277H652.248V272.56ZM695.188 259.239H681.867V254.798H695.188V259.239ZM681.867 259.239V272.56H677.427V259.239H681.867ZM699.629 259.239V277H695.188V259.239H699.629ZM677.427 272.56V277H672.987V272.56H677.427ZM726.265 254.798V259.239H708.504V254.798H726.265ZM708.504 259.239V263.679H721.825V268.119H708.504V272.56H704.063V259.239H708.504ZM708.504 272.56H726.265V277H708.504V272.56ZM760.32 272.56V281.44H755.879V277H733.677V281.44H729.237V272.56H733.677V259.239H738.118V272.56H751.439V259.239H738.118V254.798H755.879V272.56H760.32ZM772.149 268.119V272.56H767.709V277H763.268V254.798H767.709V268.119H772.149ZM785.47 254.798V277H781.03V263.679H776.589V259.239H781.03V254.798H785.47ZM776.589 263.679V268.119H772.149V263.679H776.589ZM251.019 300.239H237.698V295.798H251.019V300.239ZM237.698 300.239V304.679H233.258V300.239H237.698ZM255.46 300.239V304.679H251.019V300.239H255.46ZM251.019 304.679V309.119H242.139V304.679H251.019ZM237.698 313.56H233.258V309.119H237.698V313.56ZM251.019 309.119H255.46V313.56H251.019V309.119ZM251.019 313.56V318H237.698V313.56H251.019ZM264.352 300.239V295.798H277.673V300.239H264.352ZM282.113 300.239V318H277.673V313.56H264.352V318H259.912V300.239H264.352V309.119H277.673V300.239H282.113ZM326.517 295.798V300.239H308.756V295.798H326.517ZM308.756 300.239V304.679H322.077V309.119H308.756V313.56H304.315V300.239H308.756ZM308.756 313.56H326.517V318H308.756V313.56ZM335.409 291.358V286.917H339.85V291.358H335.409ZM344.29 291.358V286.917H348.73V291.358H344.29ZM353.171 295.798V300.239H335.409V295.798H353.171ZM335.409 300.239V304.679H348.73V309.119H335.409V313.56H330.969V300.239H335.409ZM335.409 313.56H353.171V318H335.409V313.56ZM397.574 300.239V309.119H379.813V318H375.373V295.798H393.134V300.239H379.813V304.679H393.134V300.239H397.574ZM406.467 300.239V295.798H419.788V300.239H406.467ZM424.228 300.239V318H419.788V313.56H406.467V318H402.026V300.239H406.467V309.119H419.788V300.239H424.228ZM446.442 300.239H433.12V295.798H446.442V300.239ZM433.12 300.239V304.679H428.68V300.239H433.12ZM450.882 300.239V304.679H446.442V300.239H450.882ZM446.442 304.679V309.119H437.561V304.679H446.442ZM433.12 313.56H428.68V309.119H433.12V313.56ZM446.442 309.119H450.882V313.56H446.442V309.119ZM446.442 313.56V318H433.12V313.56H446.442ZM477.536 295.798V304.679H473.095V300.239H459.774V304.679H473.095V309.119H459.774V313.56H473.095V309.119H477.536V318H455.334V295.798H477.536ZM490.868 309.119V313.56H486.428V318H481.988V295.798H486.428V309.119H490.868ZM504.189 295.798V318H499.749V304.679H495.309V300.239H499.749V295.798H504.189ZM495.309 304.679V309.119H490.868V304.679H495.309ZM529.369 295.798V300.239H520.488V318H516.048V300.239H507.167V295.798H529.369ZM541.227 309.119V313.56H536.787V318H532.346V295.798H536.787V309.119H541.227ZM554.548 295.798V318H550.108V304.679H545.667V300.239H550.108V295.798H554.548ZM545.667 304.679V309.119H541.227V304.679H545.667ZM581.202 295.798V300.239H563.44V295.798H581.202ZM563.44 300.239V304.679H576.761V309.119H563.44V313.56H559V300.239H563.44ZM563.44 313.56H581.202V318H563.44V313.56ZM594.534 304.679H590.094V318H585.654V295.798H590.094V300.239H594.534V304.679ZM607.856 295.798V318H603.415V304.679H598.975V300.239H603.415V295.798H607.856ZM598.975 304.679V309.119H594.534V304.679H598.975ZM616.748 291.358V309.119H612.308V291.358H616.748ZM616.748 313.56V318H612.308V313.56H616.748Z" fill="#00FF00"/>
<path d="M775.6 40.6H766V31H775.6V40.6ZM814 31V40.6H804.4V31H814ZM785.2 50.2H775.6V40.6H785.2V50.2ZM804.4 40.6V50.2H794.8V40.6H804.4ZM794.8 50.2V59.8H785.2V50.2H794.8ZM785.2 59.8V69.4H775.6V59.8H785.2ZM794.8 59.8H804.4V69.4H794.8V59.8ZM775.6 69.4V79H766V69.4H775.6ZM804.4 69.4H814V79H804.4V69.4Z" fill="#00FF00"/>
</svg>
