<svg width="1127" height="489" viewBox="0 0 1127 489" fill="none" xmlns="http://www.w3.org/2000/svg">
<rect x="8" y="8" width="1111" height="473" fill="black" stroke="#00FF00" stroke-width="15.957"/>
<path d="M261.191 357.798V380H256.751V371.119H243.43V380H238.989V357.798H243.43V366.679H256.751V357.798H261.191ZM270.083 362.239V357.798H283.404V362.239H270.083ZM287.845 362.239V380H283.404V375.56H270.083V380H265.643V362.239H270.083V371.119H283.404V362.239H287.845ZM296.737 366.679H292.297V357.798H296.737V366.679ZM327.82 366.679V371.119H314.498V380H310.058V371.119H296.737V366.679H310.058V357.798H314.498V366.679H327.82ZM332.26 357.798V366.679H327.82V357.798H332.26ZM296.737 371.119V380H292.297V371.119H296.737ZM327.82 371.119H332.26V380H327.82V371.119ZM345.581 366.679H341.141V380H336.7V357.798H341.141V362.239H345.581V366.679ZM358.902 357.798V380H354.462V366.679H350.021V362.239H354.462V357.798H358.902ZM350.021 366.679V371.119H345.581V366.679H350.021ZM372.235 371.119V375.56H367.794V380H363.354V357.798H367.794V371.119H372.235ZM385.556 357.798V380H381.115V366.679H376.675V362.239H381.115V357.798H385.556ZM376.675 366.679V371.119H372.235V366.679H376.675ZM410.735 357.798V362.239H401.855V380H397.414V362.239H388.533V357.798H410.735ZM435.915 357.798V362.239H418.153V357.798H435.915ZM418.153 362.239V366.679H431.474V371.119H418.153V375.56H413.713V362.239H418.153ZM418.153 375.56H435.915V380H418.153V375.56ZM480.318 357.798V380H475.878V371.119H462.557V380H458.116V357.798H462.557V366.679H475.878V357.798H480.318ZM489.211 362.239V357.798H502.532V362.239H489.211ZM506.972 362.239V380H502.532V375.56H489.211V380H484.77V362.239H489.211V371.119H502.532V362.239H506.972ZM546.935 362.239H533.614V357.798H546.935V362.239ZM533.614 362.239V366.679H529.174V362.239H533.614ZM551.376 362.239V375.56H546.935V371.119H538.055V366.679H546.935V362.239H551.376ZM533.614 375.56H529.174V371.119H533.614V375.56ZM546.935 375.56V380H533.614V375.56H546.935ZM573.589 366.679V371.119H560.268V380H555.828V357.798H560.268V366.679H573.589ZM578.029 357.798V366.679H573.589V357.798H578.029ZM573.589 371.119H578.029V380H573.589V371.119ZM604.683 362.239V371.119H586.922V380H582.481V357.798H600.243V362.239H586.922V366.679H600.243V362.239H604.683ZM613.575 362.239V357.798H626.896V362.239H613.575ZM631.337 362.239V380H626.896V375.56H613.575V380H609.135V362.239H613.575V371.119H626.896V362.239H631.337ZM657.991 357.798V380H653.55V371.119H640.229V380H635.789V357.798H640.229V366.679H653.55V357.798H657.991ZM684.633 362.239V357.798H697.954V362.239H684.633ZM702.394 362.239V380H697.954V375.56H684.633V380H680.192V362.239H684.633V371.119H697.954V362.239H702.394ZM729.048 357.798V366.679H724.608V362.239H711.286V366.679H724.608V371.119H711.286V375.56H724.608V371.119H729.048V380H706.846V357.798H729.048ZM754.227 357.798V362.239H745.347V380H740.906V362.239H732.025V357.798H754.227ZM761.645 362.239V357.798H774.966V362.239H761.645ZM761.645 375.56H757.205V362.239H761.645V375.56ZM779.407 362.239V375.56H774.966V362.239H779.407ZM774.966 375.56V380H761.645V375.56H774.966ZM792.739 366.679H788.299V380H783.859V357.798H788.299V362.239H792.739V366.679ZM806.06 357.798V380H801.62V366.679H797.18V362.239H801.62V357.798H806.06ZM797.18 366.679V371.119H792.739V366.679H797.18ZM814.953 362.239V357.798H828.274V362.239H814.953ZM832.714 362.239V380H828.274V375.56H814.953V380H810.512V362.239H814.953V371.119H828.274V362.239H832.714ZM857.894 357.798V362.239H849.013V380H844.572V362.239H835.692V357.798H857.894ZM865.311 362.239V357.798H878.633V362.239H865.311ZM883.073 362.239V380H878.633V375.56H865.311V380H860.871V362.239H865.311V371.119H878.633V362.239H883.073ZM890.485 375.56V384.44H886.045V375.56H890.485ZM347.819 407.679H343.378V398.798H347.819V407.679ZM365.58 398.798V421H361.14V412.119H347.819V407.679H361.14V398.798H365.58ZM390.759 398.798V403.239H381.879V421H377.438V403.239H368.558V398.798H390.759ZM398.177 403.239V398.798H411.498V403.239H398.177ZM398.177 416.56H393.737V403.239H398.177V416.56ZM415.939 403.239V416.56H411.498V403.239H415.939ZM411.498 416.56V421H398.177V416.56H411.498ZM442.593 398.798V403.239H424.831V407.679H442.593V416.56H438.152V412.119H424.831V416.56H420.391V398.798H442.593ZM438.152 416.56V421H424.831V416.56H438.152ZM469.246 407.679V416.56H464.806V412.119H451.485V416.56H447.044V398.798H451.485V407.679H469.246ZM478.127 398.798V421H473.687V398.798H478.127ZM464.806 416.56V421H451.485V416.56H464.806ZM522.525 398.798V421H518.084V412.119H504.763V421H500.323V398.798H504.763V407.679H518.084V398.798H522.525ZM531.417 403.239V398.798H544.738V403.239H531.417ZM549.179 403.239V421H544.738V416.56H531.417V421H526.977V403.239H531.417V412.119H544.738V403.239H549.179ZM558.071 407.679H553.63V398.798H558.071V407.679ZM575.832 398.798V421H571.392V412.119H558.071V407.679H571.392V398.798H575.832ZM584.725 403.239V398.798H598.046V403.239H584.725ZM602.486 403.239V421H598.046V416.56H584.725V421H580.284V403.239H584.725V412.119H598.046V403.239H602.486ZM627.665 398.798V403.239H618.785V421H614.344V403.239H605.464V398.798H627.665ZM652.845 407.679V416.56H648.404V412.119H635.083V416.56H630.643V398.798H635.083V407.679H652.845ZM648.404 416.56V421H635.083V416.56H648.404ZM683.927 412.119V416.56H679.487V421H675.047V398.798H679.487V412.119H683.927ZM697.248 398.798V421H692.808V407.679H688.368V403.239H692.808V398.798H697.248ZM688.368 407.679V412.119H683.927V407.679H688.368ZM723.902 398.798V403.239H706.141V398.798H723.902ZM706.141 403.239V421H701.7V403.239H706.141ZM749.082 403.239V412.119H731.32V421H726.88V398.798H744.641V403.239H731.32V407.679H744.641V403.239H749.082ZM757.974 407.679H753.534V398.798H757.974V407.679ZM775.735 398.798V416.56H771.295V412.119H757.974V407.679H771.295V398.798H775.735ZM771.295 416.56V421H753.534V416.56H771.295ZM784.628 394.358V412.119H780.187V394.358H784.628ZM784.628 416.56V421H780.187V416.56H784.628Z" fill="white"/>
<path d="M797.208 247.239H783.887V242.798H797.208V247.239ZM783.887 247.239V265H779.447V247.239H783.887ZM801.648 247.239V265H797.208V247.239H801.648ZM828.302 247.239V256.119H810.541V265H806.1V242.798H823.862V247.239H810.541V251.679H823.862V247.239H828.302ZM854.956 251.679V260.56H850.515V256.119H837.194V260.56H832.754V242.798H837.194V251.679H854.956ZM863.837 242.798V265H859.396V242.798H863.837ZM850.515 260.56V265H837.194V260.56H850.515ZM872.723 251.679H868.283V242.798H872.723V251.679ZM903.806 251.679V256.119H890.485V265H886.044V256.119H872.723V251.679H886.044V242.798H890.485V251.679H903.806ZM908.246 242.798V251.679H903.806V242.798H908.246ZM872.723 256.119V265H868.283V256.119H872.723ZM903.806 256.119H908.246V265H903.806V256.119ZM917.127 247.239V242.798H930.448V247.239H917.127ZM917.127 260.56H912.686V247.239H917.127V260.56ZM934.888 247.239V260.56H930.448V247.239H934.888ZM930.448 260.56V265H917.127V260.56H930.448ZM957.102 251.679V256.119H943.78V265H939.34V242.798H943.78V251.679H957.102ZM961.542 242.798V251.679H957.102V242.798H961.542ZM957.102 256.119H961.542V265H957.102V256.119Z" fill="#00FF00"/>
<rect x="726" y="99" width="289" height="91" fill="black" stroke="#00FF00" stroke-width="10"/>
<path d="M828.788 136.798V141.239H811.026V136.798H828.788ZM811.026 141.239V145.679H828.788V154.56H824.347V150.119H806.586V141.239H811.026ZM824.347 154.56V159H806.586V154.56H824.347ZM855.441 141.239V150.119H837.68V159H833.24V136.798H851.001V141.239H837.68V145.679H851.001V141.239H855.441ZM864.334 141.239V136.798H877.655V141.239H864.334ZM882.095 141.239V159H877.655V154.56H864.334V159H859.893V141.239H864.334V150.119H877.655V141.239H882.095ZM904.308 141.239H890.987V136.798H904.308V141.239ZM890.987 141.239V154.56H886.547V141.239H890.987ZM908.749 141.239V145.679H904.308V141.239H908.749ZM904.308 154.56V150.119H908.749V154.56H904.308ZM890.987 154.56H904.308V159H890.987V154.56ZM935.403 136.798V141.239H917.641V136.798H935.403ZM917.641 141.239V145.679H930.962V150.119H917.641V154.56H913.201V141.239H917.641ZM917.641 154.56H935.403V159H917.641V154.56Z" fill="#00FF00"/>
<path d="M65.9816 247.239H52.6605V242.798H65.9816V247.239ZM52.6605 247.239V265H48.2202V247.239H52.6605ZM70.422 247.239V265H65.9816V247.239H70.422ZM97.0757 242.798V247.239H79.3143V242.798H97.0757ZM79.3143 247.239V251.679H92.6354V256.119H79.3143V260.56H74.8739V247.239H79.3143ZM79.3143 260.56H97.0757V265H79.3143V260.56ZM123.729 247.239V256.119H105.968V265H101.528V242.798H119.289V247.239H105.968V251.679H119.289V247.239H123.729ZM150.383 242.798V247.239H132.622V242.798H150.383ZM132.622 247.239V251.679H145.943V256.119H132.622V260.56H128.181V247.239H132.622ZM132.622 260.56H150.383V265H132.622V260.56ZM163.716 251.679H159.275V265H154.835V242.798H159.275V247.239H163.716V251.679ZM177.037 242.798V265H172.597V251.679H168.156V247.239H172.597V242.798H177.037ZM168.156 251.679V256.119H163.716V251.679H168.156ZM203.691 242.798V247.239H185.929V242.798H203.691ZM185.929 247.239V251.679H199.25V256.119H185.929V260.56H181.489V247.239H185.929ZM185.929 260.56H203.691V265H185.929V260.56ZM212.583 260.56H208.143V242.798H212.583V260.56ZM252.546 260.56V269.44H248.106V265H212.583V260.56H225.904V242.798H230.344V260.56H243.665V242.798H248.106V260.56H252.546ZM277.697 242.798V247.239H259.935V242.798H277.697ZM259.935 247.239V251.679H273.256V256.119H259.935V260.56H255.495V247.239H259.935ZM259.935 260.56H277.697V265H259.935V260.56ZM304.35 242.798V265H299.91V256.119H286.589V265H282.149V242.798H286.589V251.679H299.91V242.798H304.35ZM317.683 256.119V260.56H313.243V265H308.802V242.798H313.243V256.119H317.683ZM331.004 242.798V265H326.564V251.679H322.123V247.239H326.564V242.798H331.004ZM322.123 251.679V256.119H317.683V251.679H322.123ZM357.658 242.798V247.239H339.896V242.798H357.658ZM339.896 247.239V251.679H353.218V256.119H339.896V260.56H335.456V247.239H339.896ZM339.896 260.56H357.658V265H339.896V260.56Z" fill="#00FF00"/>
<path d="M195.5 132H186.5V96H195.5V132ZM213.5 132H204.5V96H213.5V132ZM231.5 96V132H222.5V96H231.5ZM204.5 132V141H195.5V132H204.5ZM222.5 132V141H213.5V132H222.5Z" fill="#00FF00"/>
<path d="M140.5 166V157H167.5V166H140.5ZM176.5 166V202H167.5V193H140.5V202H131.5V166H140.5V184H167.5V166H176.5Z" fill="#00FF00"/>
<path d="M277.5 193V202H241.5V157H277.5V166H250.5V193H277.5ZM286.5 166V193H277.5V166H286.5Z" fill="#00FF00"/>
<path d="M231.5 157V166H195.5V157H231.5ZM195.5 166V175H231.5V193H222.5V184H186.5V166H195.5ZM222.5 193V202H186.5V193H222.5Z" fill="#00FF00"/>
<path d="M456.958 242.798V251.679H452.517V247.239H439.196V251.679H452.517V256.119H439.196V260.56H452.517V256.119H456.958V265H434.756V242.798H456.958ZM483.612 247.239V256.119H465.85V265H461.41V242.798H479.171V247.239H465.85V251.679H479.171V247.239H483.612ZM492.504 247.239V242.798H505.825V247.239H492.504ZM510.265 247.239V265H505.825V260.56H492.504V265H488.063V247.239H492.504V256.119H505.825V247.239H510.265ZM519.158 260.56H514.717V242.798H519.158V260.56ZM559.121 260.56V269.44H554.68V265H519.158V260.56H532.479V242.798H536.919V260.56H550.24V242.798H554.68V260.56H559.121ZM584.271 242.798V247.239H566.51V242.798H584.271ZM566.51 247.239V251.679H579.831V256.119H566.51V260.56H562.069V247.239H566.51ZM566.51 260.56H584.271V265H566.51V260.56ZM610.925 242.798V265H606.485V256.119H593.164V265H588.723V242.798H593.164V251.679H606.485V242.798H610.925ZM624.258 256.119V260.56H619.817V265H615.377V242.798H619.817V256.119H624.258ZM637.579 242.798V265H633.138V251.679H628.698V247.239H633.138V242.798H637.579ZM628.698 251.679V256.119H624.258V251.679H628.698ZM664.232 242.798V247.239H646.471V242.798H664.232ZM646.471 247.239V251.679H659.792V256.119H646.471V260.56H642.031V247.239H646.471ZM646.471 260.56H664.232V265H646.471V260.56ZM485.083 292.679V297.119H471.762V306H467.322V283.798H471.762V292.679H485.083ZM489.523 283.798V292.679H485.083V283.798H489.523ZM485.083 297.119H489.523V306H485.083V297.119ZM498.416 288.239V283.798H511.737V288.239H498.416ZM516.177 288.239V306H511.737V301.56H498.416V306H493.975V288.239H498.416V297.119H511.737V288.239H516.177ZM529.51 292.679H525.069V306H520.629V283.798H525.069V288.239H529.51V292.679ZM542.831 283.798V306H538.39V292.679H533.95V288.239H538.39V283.798H542.831ZM533.95 292.679V297.119H529.51V292.679H533.95ZM569.485 283.798V288.239H551.723V283.798H569.485ZM551.723 288.239V292.679H565.044V297.119H551.723V301.56H547.283V288.239H551.723ZM551.723 301.56H569.485V306H551.723V301.56ZM596.138 288.239V297.119H578.377V306H573.936V283.798H591.698V288.239H578.377V292.679H591.698V288.239H596.138ZM622.792 292.679V301.56H618.352V297.119H605.031V301.56H600.59V283.798H605.031V292.679H622.792ZM631.673 283.798V306H627.232V283.798H631.673ZM618.352 301.56V306H605.031V301.56H618.352Z" fill="#00FF00"/>
<path d="M571.5 85V94H553.5V121H571.5V130H526.5V121H544.5V94H526.5V85H571.5Z" fill="#00FF00"/>
<path d="M516.5 146V173H507.5V155H471.5V146H516.5ZM507.5 173V182H498.5V173H507.5ZM498.5 182V191H471.5V182H498.5Z" fill="#00FF00"/>
<path d="M590.5 182H581.5V146H590.5V182ZM626.5 182V191H590.5V182H626.5Z" fill="#00FF00"/>
<path d="M553.5 164V173H535.5V191H526.5V146H535.5V164H553.5ZM571.5 146V155H562.5V146H571.5ZM562.5 155V164H553.5V155H562.5ZM553.5 173H562.5V182H553.5V173ZM562.5 182H571.5V191H562.5V182Z" fill="#00FF00"/>
<path d="M1056.6 43.6H1047V34H1056.6V43.6ZM1095 34V43.6H1085.4V34H1095ZM1066.2 53.2H1056.6V43.6H1066.2V53.2ZM1085.4 43.6V53.2H1075.8V43.6H1085.4ZM1075.8 53.2V62.8H1066.2V53.2H1075.8ZM1066.2 62.8V72.4H1056.6V62.8H1066.2ZM1075.8 62.8H1085.4V72.4H1075.8V62.8ZM1056.6 72.4V82H1047V72.4H1056.6ZM1085.4 72.4H1095V82H1085.4V72.4Z" fill="#00FF00"/>
</svg>
